<?xml version="1.0" encoding="utf-8"?>
<!-- Generator: Adobe Illustrator 18.0.0, SVG Export Plug-In . SVG Version: 6.00 Build 0)  -->
<!DOCTYPE svg PUBLIC "-//W3C//DTD SVG 1.1//EN" "http://www.w3.org/Graphics/SVG/1.1/DTD/svg11.dtd">
<svg version="1.1" id="icon-bank" class="svg-icon" xmlns="http://www.w3.org/2000/svg" xmlns:xlink="http://www.w3.org/1999/xlink" x="0px" y="0px"
	 viewBox="0 0 100 100" enable-background="new 0 0 100 100" xml:space="preserve">
<g id="Layer_8">
	<path fill="#FFFFFF" d="M84.8,39.9c1,0,1.9-0.7,2.2-1.6s0-2-0.9-2.6L51.7,11.3c-0.8-0.6-1.9-0.6-2.7,0L13.8,35.7
		c-0.8,0.6-1.2,1.6-0.9,2.6c0.3,1,1.2,1.6,2.2,1.6l10.2,0c-0.3,0.5-0.4,1.1-0.4,1.8v10.4c-0.7,0.8-1.2,1.8-1.2,3v19.9
		c-1.5,0.1-2.8,1-3.5,2.3H18c-2.6,0-4.6,2.1-4.6,4.6v2.7c0,2.6,2.1,4.6,4.6,4.6H82c2.6,0,4.6-2.1,4.6-4.6v-2.7
		c0-2.6-2.1-4.6-4.6-4.6h-1.5c-0.6-1.1-1.7-1.9-3-2.2V55c0-1.1-0.4-2.2-1.2-3V41.7c0-0.6-0.1-1.2-0.4-1.7L84.8,39.9
		C84.8,39.9,84.8,39.9,84.8,39.9z M65.4,39.9c-0.3,0.5-0.4,1.1-0.4,1.8v10.4c-0.1,0.2-0.3,0.3-0.4,0.5C62.5,47,57.1,43,50.8,43
		c-6.4,0-11.9,4.2-13.9,9.9c-0.2-0.3-0.4-0.6-0.6-0.8V41.7c0-0.6-0.2-1.2-0.4-1.8L65.4,39.9z M44.4,61.1h2.5
		c0.2,2.1,1.2,3.4,3.1,3.7v-7.2c-3.5-0.7-5.2-2.4-5.2-5.1c0-1.5,0.5-2.7,1.4-3.7s2.2-1.5,3.8-1.6v-2h1.4v2c3,0.2,4.7,1.8,5,4.7h-2.5
		c-0.1-1.6-1-2.5-2.5-2.7v6.4c2.1,0.4,3.6,1.1,4.3,1.9c0.8,0.8,1.1,2,1.1,3.4c0,1.5-0.5,2.8-1.4,3.9s-2.3,1.7-4,1.8v2H50v-2
		C46.5,66.4,44.6,64.5,44.4,61.1z M37.5,74.9V63.8c2.3,5,7.4,8.5,13.3,8.5c5.6,0,10.5-3.2,13-7.9v10.5L37.5,74.9L37.5,74.9z
		 M51.4,64.8v-6.9c1.2,0.3,2,0.7,2.4,1.2c0.4,0.5,0.6,1.2,0.6,2.1C54.3,63.3,53.3,64.5,51.4,64.8z M50,55.4c-0.8-0.2-1.5-0.5-2-1
		s-0.8-1.1-0.8-2.1c0-1.8,0.9-2.8,2.7-3.1C50,49.2,50,55.4,50,55.4z"/>
</g>
</svg>
