<?xml version="1.0" encoding="utf-8"?>
<!-- Generator: Adobe Illustrator 18.0.0, SVG Export Plug-In . SVG Version: 6.00 Build 0)  -->
<!DOCTYPE svg PUBLIC "-//W3C//DTD SVG 1.1//EN" "http://www.w3.org/Graphics/SVG/1.1/DTD/svg11.dtd">
<svg version="1.1" id="icon-dollars" class="svg-icon" xmlns="http://www.w3.org/2000/svg" xmlns:xlink="http://www.w3.org/1999/xlink" x="0px" y="0px"
	 viewBox="0 0 100 100" enable-background="new 0 0 100 100" xml:space="preserve">
<g id="Layer_8">
	<path fill="#FFFFFF" d="M68.8,44.3H9.1c-1.1,0-1.9,0.9-1.9,1.9v29.4c0,1.1,0.9,1.9,1.9,1.9h59.8c1.1,0,1.9-0.9,1.9-1.9V46.2
		C70.8,45.2,69.9,44.3,68.8,44.3z M66.9,67.7c-0.5-0.2-1.1-0.3-1.7-0.3c-2.5,0-4.5,2-4.5,4.5c0,0.7,0.2,1.3,0.4,1.9H16.7
		c0.3-0.6,0.4-1.2,0.4-1.9c0-2.5-2-4.5-4.5-4.5c-0.6,0-1.1,0.1-1.6,0.3V53.9c0.5,0.2,1,0.3,1.6,0.3c2.5,0,4.5-2,4.5-4.5
		c0-0.6-0.1-1.1-0.3-1.6H61c-0.2,0.5-0.3,1-0.3,1.6c0,2.5,2,4.5,4.5,4.5c0.6,0,1.2-0.1,1.7-0.3C66.9,53.9,66.9,67.7,66.9,67.7z
		 M29.7,54.3h4.2c-2.1,1.6-3.5,4.1-3.5,6.9c0,2.6,1.1,4.9,3,6.5h-3.7v4.2h18.5v-4.2h-3.6c1.8-1.6,2.9-3.9,2.9-6.5
		c0-2.8-1.4-5.3-3.5-6.9h4.1V50H29.7C29.7,50,29.7,54.3,29.7,54.3z M36,58.6c0-1.8,1.4-3.2,3.2-3.2s3.2,1.4,3.2,3.2
		c0,1.1-0.6,2.1-1.5,2.7c1.7,0.6,2.8,2.2,2.8,4.1H35c0-1.8,1.1-3.3,2.6-4C36.6,60.9,36,59.8,36,58.6z M81.4,35.6V65
		c0,1.1-0.9,1.9-1.9,1.9h-7v-8.7c0.8-0.9,2-1.5,3.3-1.5c0.6,0,1.2,0.1,1.7,0.3V43.3c-0.5,0.2-1.1,0.3-1.7,0.3c-2.5,0-4.5-2-4.5-4.5
		c0-0.6,0.1-1.1,0.3-1.6H27.5c0.2,0.5,0.3,1,0.3,1.6c0,1.4-0.6,2.6-1.6,3.5h-8.3v-7c0-1.1,0.9-1.9,1.9-1.9h59.8
		C80.6,33.7,81.4,34.5,81.4,35.6z M58.9,39.4v3.2H40.4v-3.2H58.9z M92.9,24.3v29.4c0,1.1-0.9,1.9-1.9,1.9h-7V47
		c0.8-0.9,2-1.5,3.3-1.5c0.6,0,1.2,0.1,1.7,0.3V32c-0.5,0.2-1.1,0.3-1.7,0.3c-2.5,0-4.5-2-4.5-4.5c0-0.6,0.1-1.1,0.3-1.6H38.9
		c0.2,0.5,0.3,1,0.3,1.6c0,1.4-0.6,2.6-1.6,3.5h-8.3v-7c0-1.1,0.9-1.9,1.9-1.9h59.8C92,22.4,92.9,23.3,92.9,24.3z M70.3,28.2v3.2
		H51.8v-3.2H70.3z"/>
</g>
</svg>
