<?xml version="1.0" encoding="utf-8"?>
<!-- Generator: Adobe Illustrator 18.0.0, SVG Export Plug-In . SVG Version: 6.00 Build 0)  -->
<!DOCTYPE svg PUBLIC "-//W3C//DTD SVG 1.1//EN" "http://www.w3.org/Graphics/SVG/1.1/DTD/svg11.dtd">
<svg version="1.1" id="icon-free" class="svg-icon" xmlns="http://www.w3.org/2000/svg" xmlns:xlink="http://www.w3.org/1999/xlink" x="0px" y="0px"
	 viewBox="0 1241.9 300 300" enable-background="new 0 1241.9 300 300" xml:space="preserve">
<g>
	<path fill="#FFFFFF" d="M192.4,1351.1c-6.4,0-10.5,3-12.7,9.4s-3,16.1-3,29.2c0,12.8,1.1,22.1,3,28.9s6.4,10.1,12.7,10.1
		c6.4,0,10.5-3.4,12.8-10.1c1.9-6.8,3-16.1,3-28.9c0-13.1-1.1-22.9-3-29.2C202.9,1354.1,198.8,1351.1,192.4,1351.1z"/>
	<path fill="#FFFFFF" d="M120.4,1404.3c-1.9-1.5-4.1-3-7.9-4.5v29.6c3.8-0.4,5.6-1.5,7.5-2.6c3-2.2,4.9-6.4,4.9-12
		C124.9,1410.3,123.4,1406.9,120.4,1404.3z"/>
	<path fill="#FFFFFF" d="M150,1241.9c-82.9,0-150,67.1-150,150s67.1,150,150,150s150-67.1,150-150S232.9,1241.9,150,1241.9z
		 M131.6,1439.9c-5.6,3.4-11.6,5.6-19.1,6.4v13.1h-11.2v-13.1c-7.5-1.1-16.5-3-21.4-6.4c-8.6-5.6-11.6-14.2-11.6-29.2h20.3
		c0.7,7.5,0.7,10.5,1.9,12.4c1.9,3.4,6.8,5.2,10.5,6.4v-32.2l-4.9-1.5c-9.8-3-15.7-6.8-19.9-11.6c-4.1-4.9-5.6-11.2-5.6-18
		c0-4.5,0.8-9,2.2-12.8s3.8-7.1,6.4-9.8c3.8-3.8,6.8-6,10.9-7.5c2.6-0.8,7.1-1.5,10.9-1.9v-9.8h11.2v9.4c7.5,0.8,13.5,2.6,18.4,6
		c8.6,5.2,12,14.6,12,25.9h-19.9c-0.4-3.8,0-7.5-1.1-9.8c-1.5-3.4-5.2-5.2-9-5.6v28.9c11.2,4.1,18.8,7.9,22.9,10.9
		c6.8,5.2,10.1,12.8,10.1,22.5C145.5,1424.9,141,1434.3,131.6,1439.9z M221.6,1431.7c-5.6,9.8-15.4,14.6-29.2,14.6
		s-23.6-4.9-29.2-14.6s-8.2-23.6-8.2-41.6s2.6-31.9,8.2-41.6s15.4-14.6,29.2-14.6c13.9,0,23.6,4.9,29.2,14.6s8.2,23.6,8.2,41.6
		S227.2,1421.6,221.6,1431.7z"/>
	<path fill="#FFFFFF" d="M90.4,1363.1c0,4.1,0.8,7.5,3.8,10.1c1.9,1.5,7.1,2.6,7.1,3.8v-26.6c-3.8,0-6.8,1.1-8.6,3.4
		C90.4,1356.3,90.4,1359.3,90.4,1363.1z"/>
</g>
</svg>
