<?xml version="1.0" encoding="utf-8"?>
<!-- Generator: Adobe Illustrator 18.0.0, SVG Export Plug-In . SVG Version: 6.00 Build 0)  -->
<!DOCTYPE svg PUBLIC "-//W3C//DTD SVG 1.1//EN" "http://www.w3.org/Graphics/SVG/1.1/DTD/svg11.dtd">
<svg version="1.1" id="Layer_1" xmlns:sketch="http://www.bohemiancoding.com/sketch/ns"
	 xmlns="http://www.w3.org/2000/svg" xmlns:xlink="http://www.w3.org/1999/xlink" x="0px" y="0px" viewBox="0 0 217 84"
	 enable-background="new 0 0 217 84" xml:space="preserve">
<title>Imported Layers</title>
<desc>Created with Sketch.</desc>
<g id="Page-1" sketch:type="MSPage">
	<g id="Imported-Layers" transform="translate(1.000000, 1.000000)" sketch:type="MSLayerGroup">
		<path id="Fill-1" sketch:type="MSShapeGroup" fill="#04688C" d="M121.4,12.8h5.2l-0.6,2.5h0.1c1.3-1.5,3.7-2.8,6-2.8
			c1.9,0,3.4,0.9,4.1,2.8c1.2-1.5,3.1-2.8,5.6-2.8c3,0,5.1,1.5,4,5.8l-6,24.1h-5.5l5.7-23.1c0.4-1.5,0.2-2.7-1.5-2.7
			c-1.4,0-2.6,0.8-3.2,3.1l-5.6,22.6h-5.5l5.7-23.1c0.4-1.5,0.2-2.7-1.5-2.7c-1.4,0-2.6,0.8-3.2,3.1l-5.6,22.6h-5.5L121.4,12.8"/>
		<path id="Fill-2" sketch:type="MSShapeGroup" fill="#04688C" d="M148.3,12.8h5.9l-1.7,21.4h0.1l9-21.4h5.5l-19.6,40.4h-5.2
			l5.4-11.2L148.3,12.8"/>
		<path id="Fill-3" sketch:type="MSShapeGroup" fill="#04688C" d="M169.4-0.2h9.1c8.6,0,9.5,2.3,9.5,11.6c0,5.7-0.8,8.2-5.6,9.7v0.1
			c4,0.4,5.4,2.5,5.4,6.5V37c0,1.5,0,3.7,0.4,5.4h-5.5c-0.6-1.1-0.7-2.1-0.7-3.8V29c0-4-0.7-5.1-4.6-5.1h-2v18.5h-5.9V-0.2
			L169.4-0.2z M175.3,18.9h1.5c4.7,0,5.3-0.9,5.3-7.3c0-6.3-0.4-6.9-4-6.9h-2.8V18.9L175.3,18.9z"/>
		<path id="Fill-4" sketch:type="MSShapeGroup" fill="#04688C" d="M199.1-0.2h6.8l8.7,42.6h-5.9l-1.9-10.9h-9.2l-1.9,10.9h-5.9
			L199.1-0.2L199.1-0.2z M198.5,26.6h7.5l-3.7-20.5h-0.1L198.5,26.6L198.5,26.6z"/>
		<path id="Fill-5" sketch:type="MSShapeGroup" fill="#04688C" d="M111.5,56.4l1.5,6.9h0l0-0.4l0.4-2.3l0.9-4.2h1.2l1,9.6h-1.3
			l-0.2-3.6l-0.1-1.8l0-1.3h0l-0.2,1.4l-1.1,5.2h-0.9l-1.3-6.6h0l-0.4,6.6h-1.3l0.8-9.6H111.5"/>
		<path id="Fill-6" sketch:type="MSShapeGroup" fill="#04688C" d="M117.9,56.4l1.3,4.4h0l0.2-1.2l0.9-3.2h1.5l-1.9,5.5V66h-1.4v-4.1
			l-2-5.5H117.9"/>
		<path id="Fill-7" sketch:type="MSShapeGroup" fill="#04688C" d="M125.1,56.4h1.6c1,0,2.6,0.1,2.6,2.5c0,0.9-0.3,2.3-1.4,2.5
			l1.9,4.7h-1.4l-1.9-4.7h0V66h-1.4V56.4L125.1,56.4z M127.8,59.1c0-0.9-0.1-1.7-1.2-1.7h-0.2v3.2C127.5,60.7,127.8,60.1,127.8,59.1
			L127.8,59.1z"/>
		<path id="Fill-8" sketch:type="MSShapeGroup" fill="#04688C" d="M134.2,56.4v1.1h-2.3v3h2.1v1.1h-2.1v3.3h2.3V66h-3.7v-9.6H134.2"
			/>
		<path id="Fill-9" sketch:type="MSShapeGroup" fill="#04688C" d="M139.3,56.4v1.1h-1.5V66h-1.4v-8.5h-1.6v-1.1H139.3"/>
		<path id="Fill-10" sketch:type="MSShapeGroup" fill="#04688C" d="M140,56.4h1.4V66H140V56.4z"/>
		<path id="Fill-11" sketch:type="MSShapeGroup" fill="#04688C" d="M142.7,56.4h1.6c1,0,2.6,0.1,2.6,2.5c0,0.9-0.3,2.3-1.4,2.5
			l1.9,4.7H146l-1.9-4.7h0V66h-1.4V56.4L142.7,56.4z M145.5,59.1c0-0.9-0.1-1.7-1.2-1.7h-0.2v3.2C145.1,60.7,145.5,60.1,145.5,59.1
			L145.5,59.1z"/>
		<path id="Fill-12" sketch:type="MSShapeGroup" fill="#04688C" d="M152.1,56.4v1.1h-2.3v3h2.1v1.1h-2.1v3.3h2.3V66h-3.7v-9.6H152.1
			"/>
		<path id="Fill-13" sketch:type="MSShapeGroup" fill="#04688C" d="M154.8,56.4l1.5,6.9h0l0-0.4l0.4-2.3l0.9-4.2h1.2l1,9.6h-1.3
			l-0.2-3.6l-0.1-1.8l0-1.3h0l-0.2,1.4l-1.1,5.2h-0.9l-1.3-6.6h0l-0.4,6.6h-1.3l0.8-9.6H154.8"/>
		<path id="Fill-14" sketch:type="MSShapeGroup" fill="#04688C" d="M164.2,56.4v1.1h-2.3v3h2.1v1.1h-2.1v3.3h2.3V66h-3.7v-9.6H164.2
			"/>
		<path id="Fill-15" sketch:type="MSShapeGroup" fill="#04688C" d="M166.3,59.2l0.2,3.2V66h-1.4v-9.6h1.3l2.4,7.3l0,0l-0.3-3.8v-3.4
			h1.4V66h-1.3l-2.4-7.4l0,0L166.3,59.2"/>
		<path id="Fill-16" sketch:type="MSShapeGroup" fill="#04688C" d="M175.2,56.4v1.1h-1.5V66h-1.4v-8.5h-1.6v-1.1H175.2"/>
		<path id="Fill-17" sketch:type="MSShapeGroup" fill="#04688C" d="M180.8,56.4L183,66h-1.4l-0.4-1.9h-2l-0.4,1.9h-1.3l2.2-9.6
			H180.8L180.8,56.4z M180.7,61.7l-0.5-3.5h0l-0.8,4.9h1.6L180.7,61.7L180.7,61.7z"/>
		<path id="Fill-18" sketch:type="MSShapeGroup" fill="#04688C" d="M187.5,57.7c-0.3-0.1-0.6-0.2-0.9-0.2c-1.9,0-1.9,2.6-1.9,3.8
			c0,1.3,0.1,3.7,2,3.7c0.3,0,0.6-0.1,0.8-0.2v1.1c-0.3,0.2-0.7,0.3-1.1,0.3c-2.8,0-3.2-2.8-3.2-4.8c0-1.9,0.3-5.1,3.1-5.1
			c0.5,0,0.8,0.1,1.2,0.3V57.7"/>
		<path id="Fill-19" sketch:type="MSShapeGroup" fill="#04688C" d="M192.4,57.7c-0.3-0.1-0.6-0.2-0.9-0.2c-1.9,0-1.9,2.6-1.9,3.8
			c0,1.3,0.1,3.7,2,3.7c0.3,0,0.6-0.1,0.8-0.2v1.1c-0.3,0.2-0.7,0.3-1.1,0.3c-2.8,0-3.2-2.8-3.2-4.8c0-1.9,0.3-5.1,3.1-5.1
			c0.5,0,0.8,0.1,1.2,0.3V57.7"/>
		<path id="Fill-20" sketch:type="MSShapeGroup" fill="#04688C" d="M198.3,61.2c0,1.7,0,4.9-2.7,4.9c-2.7,0-2.7-3.2-2.7-4.9
			c0-1.7,0-4.9,2.7-4.9C198.3,56.3,198.3,59.5,198.3,61.2L198.3,61.2z M194.4,61.2c0,2,0.1,3.7,1.2,3.7c1.1,0,1.2-1.7,1.2-3.7
			c0-2-0.2-3.7-1.2-3.7C194.5,57.5,194.4,59.1,194.4,61.2L194.4,61.2z"/>
		<path id="Fill-21" sketch:type="MSShapeGroup" fill="#04688C" d="M200.8,56.4v7c0,1.2,0.4,1.5,1,1.5c0.9,0,1-0.6,1-1.4v-7.2h1.4
			v6.8c0,1.3,0,2.9-2.4,2.9c-2.2,0-2.4-1.4-2.4-3.1v-6.6H200.8"/>
		<path id="Fill-22" sketch:type="MSShapeGroup" fill="#04688C" d="M206.6,59.2l0.2,3.2V66h-1.4v-9.6h1.3l2.4,7.3l0,0l-0.3-3.8v-3.4
			h1.4V66h-1.3l-2.4-7.4l0,0L206.6,59.2"/>
		<path id="Fill-23" sketch:type="MSShapeGroup" fill="#04688C" d="M215.5,56.4v1.1H214V66h-1.4v-8.5H211v-1.1H215.5"/>
		<path id="Fill-24" sketch:type="MSShapeGroup" fill="#04688C" d="M70.6,72.4v7c0,1.2,0.4,1.5,1,1.5c0.9,0,1-0.6,1-1.4v-7.2H74v6.8
			c0,1.3,0,2.9-2.4,2.9c-2.2,0-2.4-1.4-2.4-3.1v-6.6H70.6"/>
		<path id="Fill-25" sketch:type="MSShapeGroup" fill="#04688C" d="M75.2,81.3c0-0.4,0.4-0.8,0.8-0.8c0.5,0,0.8,0.3,0.8,0.8
			c0,0.4-0.4,0.8-0.8,0.8C75.6,82.1,75.2,81.7,75.2,81.3"/>
		<path id="Fill-26" sketch:type="MSShapeGroup" fill="#04688C" d="M81.3,73.9c-0.4-0.2-0.7-0.4-1.2-0.4c-0.8,0-1.2,0.6-1.2,1.2
			c0,0.4,0.1,0.7,0.4,1l1,1.1c0.9,0.9,1.5,1.5,1.5,2.8c0,1.3-0.9,2.5-2.4,2.5c-0.5,0-1.1-0.1-1.5-0.5v-1.3c0.4,0.3,0.8,0.5,1.4,0.5
			c0.8,0,1.2-0.6,1.2-1.3c0-1.9-2.9-2.3-2.9-4.8c0-1.3,0.8-2.5,2.3-2.5c0.5,0,1,0.1,1.4,0.3L81.3,73.9"/>
		<path id="Fill-27" sketch:type="MSShapeGroup" fill="#04688C" d="M82.5,81.3c0-0.4,0.4-0.8,0.8-0.8c0.5,0,0.8,0.3,0.8,0.8
			c0,0.4-0.4,0.8-0.8,0.8C82.9,82.1,82.5,81.7,82.5,81.3"/>
		<path id="Fill-28" sketch:type="MSShapeGroup" fill="#04688C" d="M89.6,72.4c1.6,0,3.4,0.1,3.4,5c0,4.4-1.6,4.6-4,4.6h-0.9v-9.6
			H89.6L89.6,72.4z M89.4,73.5v7.4c2.3,0.1,2.2-1.9,2.2-3.6C91.6,75.9,91.7,73.3,89.4,73.5L89.4,73.5z"/>
		<path id="Fill-29" sketch:type="MSShapeGroup" fill="#04688C" d="M97.9,72.4v1.1h-2.3v3h2.1v1.1h-2.1v3.3h2.3V82h-3.7v-9.6H97.9"
			/>
		<path id="Fill-30" sketch:type="MSShapeGroup" fill="#04688C" d="M98.8,82v-9.6h1.6c1.2,0,2.7,0.1,2.7,2.6c0,1.9-0.8,2.9-2.9,2.8
			V82H98.8L98.8,82z M100.2,73.5v3.2c1.2,0.1,1.5-0.5,1.5-1.6c0-0.9-0.3-1.6-1.3-1.6H100.2L100.2,73.5z"/>
		<path id="Fill-31" sketch:type="MSShapeGroup" fill="#04688C" d="M106.1,72.4l2.2,9.6h-1.4l-0.4-1.9h-2l-0.4,1.9h-1.3l2.2-9.6
			H106.1L106.1,72.4z M106.1,77.7l-0.5-3.5h0l-0.8,4.9h1.6L106.1,77.7L106.1,77.7z"/>
		<path id="Fill-32" sketch:type="MSShapeGroup" fill="#04688C" d="M109,72.4h1.6c1,0,2.6,0.1,2.6,2.5c0,0.9-0.3,2.3-1.4,2.5
			l1.9,4.7h-1.4l-1.9-4.7h0V82H109V72.4L109,72.4z M111.8,75.1c0-0.9-0.1-1.7-1.2-1.7h-0.2v3.2C111.4,76.7,111.8,76.1,111.8,75.1
			L111.8,75.1z"/>
		<path id="Fill-33" sketch:type="MSShapeGroup" fill="#04688C" d="M117.9,72.4v1.1h-1.5V82H115v-8.5h-1.6v-1.1H117.9"/>
		<path id="Fill-34" sketch:type="MSShapeGroup" fill="#04688C" d="M120.1,72.4l1.5,6.9h0l0-0.4l0.4-2.3l0.9-4.2h1.2l1,9.6h-1.3
			l-0.2-3.6l-0.1-1.8l0-1.3h0l-0.2,1.4L122,82h-0.9l-1.3-6.6h0l-0.4,6.6H118l0.8-9.6H120.1"/>
		<path id="Fill-35" sketch:type="MSShapeGroup" fill="#04688C" d="M129.7,72.4v1.1h-2.3v3h2.1v1.1h-2.1v3.3h2.3V82H126v-9.6H129.7"
			/>
		<path id="Fill-36" sketch:type="MSShapeGroup" fill="#04688C" d="M131.8,75.2l0.2,3.2V82h-1.4v-9.6h1.3l2.4,7.3l0,0l-0.3-3.8v-3.4
			h1.4V82h-1.3l-2.4-7.4l0,0L131.8,75.2"/>
		<path id="Fill-37" sketch:type="MSShapeGroup" fill="#04688C" d="M140.5,72.4v1.1H139V82h-1.4v-8.5H136v-1.1H140.5"/>
		<path id="Fill-38" sketch:type="MSShapeGroup" fill="#04688C" d="M148.9,77.2c0,1.7,0,4.9-2.7,4.9c-2.7,0-2.7-3.2-2.7-4.9
			c0-1.7,0-4.9,2.7-4.9C148.8,72.3,148.9,75.5,148.9,77.2L148.9,77.2z M145,77.2c0,2,0.2,3.7,1.2,3.7c1.1,0,1.2-1.7,1.2-3.7
			c0-2-0.1-3.7-1.2-3.7C145.1,73.5,145,75.1,145,77.2L145,77.2z"/>
		<path id="Fill-39" sketch:type="MSShapeGroup" fill="#04688C" d="M153.8,72.4v1.1h-2.3v3h2.1v1.1h-2.1V82h-1.4v-9.6H153.8"/>
		<path id="Fill-40" sketch:type="MSShapeGroup" fill="#04688C" d="M160.9,72.4v1.1h-1.5V82H158v-8.5h-1.6v-1.1H160.9"/>
		<path id="Fill-41" sketch:type="MSShapeGroup" fill="#04688C" d="M162.9,72.4v3.7h2.1v-3.7h1.4V82h-1.4v-4.8h-2.1V82h-1.4v-9.6
			H162.9"/>
		<path id="Fill-42" sketch:type="MSShapeGroup" fill="#04688C" d="M171.5,72.4v1.1h-2.3v3h2.1v1.1h-2.1v3.3h2.3V82h-3.7v-9.6H171.5
			"/>
		<path id="Fill-43" sketch:type="MSShapeGroup" fill="#04688C" d="M178.6,72.4v1.1h-1.5V82h-1.4v-8.5h-1.6v-1.1H178.6"/>
		<path id="Fill-44" sketch:type="MSShapeGroup" fill="#04688C" d="M179.2,72.4h1.6c1,0,2.6,0.1,2.6,2.5c0,0.9-0.3,2.3-1.4,2.5
			l1.9,4.7h-1.4l-1.9-4.7h0V82h-1.4V72.4L179.2,72.4z M182,75.1c0-0.9-0.1-1.7-1.2-1.7h-0.2v3.2C181.6,76.7,182,76.1,182,75.1
			L182,75.1z"/>
		<path id="Fill-45" sketch:type="MSShapeGroup" fill="#04688C" d="M188.4,72.4v1.1h-2.3v3h2.1v1.1h-2.1v3.3h2.3V82h-3.7v-9.6H188.4
			"/>
		<path id="Fill-46" sketch:type="MSShapeGroup" fill="#04688C" d="M191.9,72.4l2.2,9.6h-1.4l-0.4-1.9h-2l-0.4,1.9h-1.3l2.2-9.6
			H191.9L191.9,72.4z M191.8,77.7l-0.5-3.5h0l-0.8,4.9h1.6L191.8,77.7L191.8,77.7z"/>
		<path id="Fill-47" sketch:type="MSShapeGroup" fill="#04688C" d="M198,73.9c-0.4-0.2-0.7-0.4-1.2-0.4c-0.8,0-1.2,0.6-1.2,1.2
			c0,0.4,0.1,0.7,0.4,1l1,1.1c0.9,0.9,1.5,1.5,1.5,2.8c0,1.3-0.9,2.5-2.4,2.5c-0.5,0-1.1-0.1-1.5-0.5v-1.3c0.4,0.3,0.8,0.5,1.4,0.5
			c0.8,0,1.2-0.6,1.2-1.3c0-1.9-2.9-2.3-2.9-4.8c0-1.3,0.8-2.5,2.3-2.5c0.5,0,1,0.1,1.4,0.3L198,73.9"/>
		<path id="Fill-48" sketch:type="MSShapeGroup" fill="#04688C" d="M200.8,72.4v7c0,1.2,0.4,1.5,1,1.5c0.9,0,1-0.6,1-1.4v-7.2h1.4
			v6.8c0,1.3,0,2.9-2.4,2.9c-2.2,0-2.4-1.4-2.4-3.1v-6.6H200.8"/>
		<path id="Fill-49" sketch:type="MSShapeGroup" fill="#04688C" d="M205.7,72.4h1.6c1,0,2.6,0.1,2.6,2.5c0,0.9-0.3,2.3-1.4,2.5
			l1.9,4.7h-1.4l-1.9-4.7h0V82h-1.4V72.4L205.7,72.4z M208.4,75.1c0-0.9-0.1-1.7-1.2-1.7h-0.2v3.2C208.1,76.7,208.4,76.1,208.4,75.1
			L208.4,75.1z"/>
		<path id="Fill-50" sketch:type="MSShapeGroup" fill="#04688C" d="M211.6,72.4l1.3,4.4h0l0.2-1.2l0.9-3.2h1.5l-1.9,5.5V82h-1.4
			v-4.1l-2-5.5H211.6"/>
		<path id="Fill-51" sketch:type="MSShapeGroup" fill="#04688C" d="M14.2,20.5l-1.7,5.3l4.5-3.3l4.5,3.3l-1.7-5.3l4.5-3.3l-5.6,0
			L17,11.9l-1.7,5.4l-5.6,0L14.2,20.5"/>
		<path id="Fill-52" sketch:type="MSShapeGroup" fill="#04688C" d="M57.4,2.6L57.4,2.6L28.8,9.7H86L57.4,2.6"/>
		<path id="Fill-53" sketch:type="MSShapeGroup" fill="#04688C" d="M26.9,9.3c0.1,0,0.2,0,0.2,0l30.3-7.5l30.3,7.5
			c0.1,0,0.2,0,0.2,0c0.5,0,0.9-0.3,1-0.8C89,8,88.7,7.5,88.2,7.4L57.4-0.3L26.7,7.4C26.1,7.5,25.8,8,26,8.6
			C26.1,9,26.5,9.3,26.9,9.3"/>
		<path id="Fill-54" sketch:type="MSShapeGroup" fill="#04688C" d="M39.7,13.1H86v-2.5H28.8v2.5H39.7"/>
		<path id="Fill-55" sketch:type="MSShapeGroup" fill="#04688C" d="M59,15.2h0.3c0,0.5,0.4,0.9,1,0.9v0.2c0,0.1,0.1,0.3,0.3,0.3h0.1
			v26.3c2.9,0.4,5.7,0.8,8.4,1.1V16.6h0.1c0.2,0,0.3-0.1,0.3-0.3v-0.2c0.6,0,1-0.4,1-0.9h0.3c0.1,0,0.2-0.1,0.2-0.1v-0.9
			c0-0.1-0.1-0.1-0.2-0.1H59c-0.1,0-0.2,0.1-0.2,0.1V15C58.8,15.1,58.9,15.2,59,15.2"/>
		<path id="Fill-56" sketch:type="MSShapeGroup" fill="#04688C" d="M73.7,15.2H74c0,0.5,0.4,0.9,1,0.9v0.2c0,0.1,0.1,0.3,0.3,0.3
			h0.1v28.1c3.1,0.3,5.9,0.5,8.4,0.6V16.6h0.1c0.2,0,0.3-0.1,0.3-0.3v-0.2c0.6,0,1-0.4,1-0.9h0.2c0.1,0,0.2-0.1,0.2-0.1v-0.9
			c0-0.1-0.1-0.1-0.2-0.1H73.7c-0.1,0-0.1,0.1-0.1,0.1V15C73.6,15.1,73.7,15.2,73.7,15.2"/>
		<path id="Fill-57" sketch:type="MSShapeGroup" fill="#04688C" d="M29.4,15.2h0.3c0,0.5,0.4,0.9,1,0.9v0.2c0,0.1,0.1,0.3,0.3,0.3
			h0.1v19.1c2.7,0.9,5.5,1.8,8.4,2.7V16.6h0.1c0.2,0,0.3-0.1,0.3-0.3v-0.2c0.6,0,1-0.4,1-0.9h0.2c0.1,0,0.2-0.1,0.2-0.1v-0.9
			c0-0.1-0.1-0.1-0.2-0.1H29.4c-0.1,0-0.2,0.1-0.2,0.1V15C29.3,15.1,29.4,15.2,29.4,15.2"/>
		<path id="Fill-58" sketch:type="MSShapeGroup" fill="#04688C" d="M44.2,15.2h0.3c0,0.5,0.4,0.9,1,0.9v0.2c0,0.1,0.1,0.3,0.3,0.3
			h0.1V40c2.8,0.7,5.6,1.3,8.4,1.8V16.6h0.1c0.2,0,0.3-0.1,0.3-0.3v-0.2c0.6,0,1-0.4,1-0.9h0.2c0.1,0,0.1-0.1,0.1-0.1v-0.9
			C56,14,56,14,55.9,14H44.2c-0.1,0-0.2,0.1-0.2,0.1V15C44.1,15.1,44.1,15.2,44.2,15.2"/>
		<path id="Fill-59" sketch:type="MSShapeGroup" fill="#04688C" d="M18.5,45.6C11.9,41,6.9,35.6,3.2,31.5c3,6.6,17.4,33.5,57,51.1
			l6-13.1C43.1,62.5,28.7,52.6,18.5,45.6"/>
		<path id="Fill-60" sketch:type="MSShapeGroup" fill="#04688C" d="M86.4,69.3l8.2-19.4c0,0-27.7,0-53.2-6.7
			C15.8,36.4-0.5,25.5-0.5,25.5S21.3,56.7,86.4,69.3"/>
	</g>
</g>
</svg>
