<?xml version="1.0" encoding="utf-8"?>
<!-- Generator: Adobe Illustrator 18.0.0, SVG Export Plug-In . SVG Version: 6.00 Build 0)  -->
<!DOCTYPE svg PUBLIC "-//W3C//DTD SVG 1.1//EN" "http://www.w3.org/Graphics/SVG/1.1/DTD/svg11.dtd">
<svg version="1.1" id="Layer_1" xmlns:sketch="http://www.bohemiancoding.com/sketch/ns"
	 xmlns="http://www.w3.org/2000/svg" xmlns:xlink="http://www.w3.org/1999/xlink" x="0px" y="0px" viewBox="0 0 1500 500"
	 enable-background="new 0 0 1500 500" xml:space="preserve">
<title>Imported Layers</title>
<desc>Created with Sketch.</desc>
<g id="Page-1" sketch:type="MSPage">
	<g id="Imported-Layers" transform="translate(1.000000, 1.000000)" sketch:type="MSLayerGroup">
		<path id="Fill-1" sketch:type="MSShapeGroup" fill="#020202" d="M831.7,81.1h31L859.1,96h0.6c7.7-8.9,22-16.7,35.7-16.7
			c11.3,0,20.2,5.4,24.4,16.7c7.1-8.9,18.5-16.7,33.3-16.7c17.9,0,30.4,8.9,23.8,34.5l-35.7,143.5h-32.7l33.9-137.5
			c2.4-8.9,1.2-16.1-8.9-16.1c-8.3,0-15.5,4.8-19,18.5l-33.3,134.5h-32.7l33.9-137.5c2.4-8.9,1.2-16.1-8.9-16.1
			c-8.3,0-15.5,4.8-19,18.5L821,256.1h-32.7L831.7,81.1"/>
		<path id="Fill-2" sketch:type="MSShapeGroup" fill="#020202" d="M991.9,81.1h35.1l-10.1,127.4h0.6L1071,81.1h32.7L987.1,321.6h-31
			l32.1-66.7L991.9,81.1"/>
		<path id="Fill-3" sketch:type="MSShapeGroup" fill="#020202" d="M1117.5,3.8h54.2c51.2,0,56.5,13.7,56.5,69
			c0,33.9-4.8,48.8-33.3,57.7v0.6c23.8,2.4,32.1,14.9,32.1,38.7v55.4c0,8.9,0,22,2.4,32.1h-32.7c-3.6-6.5-4.2-12.5-4.2-22.6v-57.1
			c0-23.8-4.2-30.4-27.4-30.4h-11.9v110.1H1118V3.8H1117.5z M1152.6,117.5h8.9c28,0,31.5-5.4,31.5-43.5c0-37.5-2.4-41.1-23.8-41.1
			h-16.7V117.5L1152.6,117.5z"/>
		<path id="Fill-4" sketch:type="MSShapeGroup" fill="#020202" d="M1294.2,3.8h40.5l51.8,253.6h-35.1l-11.3-64.9h-54.8l-11.3,64.9
			h-35.1L1294.2,3.8L1294.2,3.8z M1290.7,163.3h44.6l-22-122h-0.6L1290.7,163.3L1290.7,163.3z"/>
		<path id="Fill-5" sketch:type="MSShapeGroup" fill="#020202" d="M772.8,340.7l8.9,41.1l0,0v-2.4l2.4-13.7l5.4-25h7.1l6,57.1h-7.7
			l-1.2-21.4l-0.6-10.7v-7.7l0,0l-1.2,8.3l-6.5,31H780l-7.7-39.3l0,0l-2.4,39.3h-7.7l4.8-57.1h6"/>
		<path id="Fill-6" sketch:type="MSShapeGroup" fill="#020202" d="M810.9,340.7l7.7,26.2l0,0l1.2-7.1l5.4-19h8.9l-11.3,32.7v24.4
			h-8.3v-24.4l-11.9-32.7H810.9"/>
		<path id="Fill-7" sketch:type="MSShapeGroup" fill="#020202" d="M853.8,340.7h9.5c6,0,15.5,0.6,15.5,14.9c0,5.4-1.8,13.7-8.3,14.9
			l11.3,28h-8.3l-11.3-28l0,0v27.4h-8.3V340.7L853.8,340.7z M869.8,356.7c0-5.4-0.6-10.1-7.1-10.1h-1.2v19
			C868,366.3,869.8,362.7,869.8,356.7L869.8,356.7z"/>
		<path id="Fill-8" sketch:type="MSShapeGroup" fill="#020202" d="M907.9,340.7v6.5h-13.7v17.9h12.5v6.5h-12.5v19.6h13.7v6.5h-22
			v-57.1H907.9"/>
		<path id="Fill-9" sketch:type="MSShapeGroup" fill="#020202" d="M938.3,340.7v6.5h-8.9v50.6H921v-50.6h-9.5v-6.5H938.3"/>
		<path id="Fill-10" sketch:type="MSShapeGroup" fill="#020202" d="M942.5,340.7h8.3v57.1h-8.3V340.7z"/>
		<path id="Fill-11" sketch:type="MSShapeGroup" fill="#020202" d="M958.5,340.7h9.5c6,0,15.5,0.6,15.5,14.9
			c0,5.4-1.8,13.7-8.3,14.9l11.3,28h-8.3l-11.3-28l0,0v27.4h-8.3L958.5,340.7L958.5,340.7z M975.2,356.7c0-5.4-0.6-10.1-7.1-10.1
			h-1.2v19C972.8,366.3,975.2,362.7,975.2,356.7L975.2,356.7z"/>
		<path id="Fill-12" sketch:type="MSShapeGroup" fill="#020202" d="M1014.5,340.7v6.5h-13.7v17.9h12.5v6.5h-12.5v19.6h13.7v6.5h-22
			v-57.1H1014.5"/>
		<path id="Fill-13" sketch:type="MSShapeGroup" fill="#020202" d="M1030.5,340.7l8.9,41.1l0,0v-2.4l2.4-13.7l5.4-25h7.1l6,57.1
			h-7.7l-1.2-21.4l-0.6-10.7v-7.7l0,0l-1.2,8.3l-6.5,31h-5.4l-7.7-39.3l0,0l-2.4,39.3h-7.7l4.8-57.1h6"/>
		<path id="Fill-14" sketch:type="MSShapeGroup" fill="#020202" d="M1086.5,340.7v6.5h-13.7v17.9h12.5v6.5h-12.5v19.6h13.7v6.5h-22
			v-57.1H1086.5"/>
		<path id="Fill-15" sketch:type="MSShapeGroup" fill="#020202" d="M1099,357.3l1.2,19v21.4h-8.3v-57.1h7.7l14.3,43.5l0,0l-1.8-22.6
			v-20.2h8.3v56.5h-7.7l-14.3-44l0,0L1099,357.3"/>
		<path id="Fill-16" sketch:type="MSShapeGroup" fill="#020202" d="M1152,340.7v6.5h-8.9v50.6h-8.3v-50.6h-9.5v-6.5H1152"/>
		<path id="Fill-17" sketch:type="MSShapeGroup" fill="#020202" d="M1185.3,340.7l13.1,57.1h-8.3l-2.4-11.3h-11.9l-2.4,11.3h-7.7
			l13.1-57.1H1185.3L1185.3,340.7z M1184.7,372.2l-3-20.8l0,0l-4.8,29.2h9.5L1184.7,372.2L1184.7,372.2z"/>
		<path id="Fill-18" sketch:type="MSShapeGroup" fill="#020202" d="M1225.2,348.4c-1.8-0.6-3.6-1.2-5.4-1.2
			c-11.3,0-11.3,15.5-11.3,22.6c0,7.7,0.6,22,11.9,22c1.8,0,3.6-0.6,4.8-1.2v6.5c-1.8,1.2-4.2,1.8-6.5,1.8c-16.7,0-19-16.7-19-28.6
			c0-11.3,1.8-30.4,18.5-30.4c3,0,4.8,0.6,7.1,1.8L1225.2,348.4"/>
		<path id="Fill-19" sketch:type="MSShapeGroup" fill="#020202" d="M1254.4,348.4c-1.8-0.6-3.6-1.2-5.4-1.2
			c-11.3,0-11.3,15.5-11.3,22.6c0,7.7,0.6,22,11.9,22c1.8,0,3.6-0.6,4.8-1.2v6.5c-1.8,1.2-4.2,1.8-6.5,1.8c-16.7,0-19-16.7-19-28.6
			c0-11.3,1.8-30.4,18.5-30.4c3,0,4.8,0.6,7.1,1.8L1254.4,348.4"/>
		<path id="Fill-20" sketch:type="MSShapeGroup" fill="#020202" d="M1289.5,369.2c0,10.1,0,29.2-16.1,29.2s-16.1-19-16.1-29.2
			s0-29.2,16.1-29.2C1289.5,340.1,1289.5,359.1,1289.5,369.2L1289.5,369.2z M1266.3,369.2c0,11.9,0.6,22,7.1,22
			c6.5,0,7.1-10.1,7.1-22c0-11.9-1.2-22-7.1-22C1266.9,347.2,1266.3,356.7,1266.3,369.2L1266.3,369.2z"/>
		<path id="Fill-21" sketch:type="MSShapeGroup" fill="#020202" d="M1304.4,340.7v41.7c0,7.1,2.4,8.9,6,8.9c5.4,0,6-3.6,6-8.3v-42.9
			h8.3v40.5c0,7.7,0,17.3-14.3,17.3c-13.1,0-14.3-8.3-14.3-18.5v-39.3h8.3"/>
		<path id="Fill-22" sketch:type="MSShapeGroup" fill="#020202" d="M1338.9,357.3l1.2,19v21.4h-8.3v-57.1h7.7l14.3,43.5l0,0
			l-1.8-22.6v-20.2h8.3v56.5h-7.7l-14.3-44l0,0L1338.9,357.3"/>
		<path id="Fill-23" sketch:type="MSShapeGroup" fill="#020202" d="M1391.9,340.7v6.5h-8.9v50.6h-8.3v-50.6h-9.5v-6.5H1391.9"/>
		<path id="Fill-24" sketch:type="MSShapeGroup" fill="#020202" d="M529.4,435.9v41.7c0,7.1,2.4,8.9,6,8.9c5.4,0,6-3.6,6-8.3v-42.9
			h8.3v40.5c0,7.7,0,17.3-14.3,17.3c-13.1,0-14.3-8.3-14.3-18.5v-39.3h8.3"/>
		<path id="Fill-25" sketch:type="MSShapeGroup" fill="#020202" d="M556.7,488.9c0-2.4,2.4-4.8,4.8-4.8c3,0,4.8,1.8,4.8,4.8
			c0,2.4-2.4,4.8-4.8,4.8C559.1,493.6,556.7,491.3,556.7,488.9"/>
		<path id="Fill-26" sketch:type="MSShapeGroup" fill="#020202" d="M593,444.8c-2.4-1.2-4.2-2.4-7.1-2.4c-4.8,0-7.1,3.6-7.1,7.1
			c0,2.4,0.6,4.2,2.4,6l6,6.5c5.4,5.4,8.9,8.9,8.9,16.7c0,7.7-5.4,14.9-14.3,14.9c-3,0-6.5-0.6-8.9-3v-7.7c2.4,1.8,4.8,3,8.3,3
			c4.8,0,7.1-3.6,7.1-7.7c0-11.3-17.3-13.7-17.3-28.6c0-7.7,4.8-14.9,13.7-14.9c3,0,6,0.6,8.3,1.8L593,444.8"/>
		<path id="Fill-27" sketch:type="MSShapeGroup" fill="#020202" d="M600.2,488.9c0-2.4,2.4-4.8,4.8-4.8c3,0,4.8,1.8,4.8,4.8
			c0,2.4-2.4,4.8-4.8,4.8C602.6,493.6,600.2,491.3,600.2,488.9"/>
		<path id="Fill-28" sketch:type="MSShapeGroup" fill="#020202" d="M642.5,435.9c9.5,0,20.2,0.6,20.2,29.8
			c0,26.2-9.5,27.4-23.8,27.4h-5.4v-57.1H642.5L642.5,435.9z M641.3,442.5v44c13.7,0.6,13.1-11.3,13.1-21.4
			C654.4,456.7,655,441.3,641.3,442.5L641.3,442.5z"/>
		<path id="Fill-29" sketch:type="MSShapeGroup" fill="#020202" d="M691.9,435.9v6.5h-13.7v17.9h12.5v6.5h-12.5v19.6h13.7v6.5h-22
			v-57.1H691.9"/>
		<path id="Fill-30" sketch:type="MSShapeGroup" fill="#020202" d="M697.2,493v-57.1h9.5c7.1,0,16.1,0.6,16.1,15.5
			c0,11.3-4.8,17.3-17.3,16.7v25H697.2L697.2,493z M705.5,442.5v19c7.1,0.6,8.9-3,8.9-9.5c0-5.4-1.8-9.5-7.7-9.5H705.5L705.5,442.5z
			"/>
		<path id="Fill-31" sketch:type="MSShapeGroup" fill="#020202" d="M740.7,435.9l13.1,57.1h-8.3l-2.4-11.3h-11.9l-2.4,11.3H721
			l13.1-57.1H740.7L740.7,435.9z M740.7,467.5l-3-20.8l0,0l-4.8,29.2h9.5L740.7,467.5L740.7,467.5z"/>
		<path id="Fill-32" sketch:type="MSShapeGroup" fill="#020202" d="M757.9,435.9h9.5c6,0,15.5,0.6,15.5,14.9
			c0,5.4-1.8,13.7-8.3,14.9l11.3,28h-8.3l-11.3-28l0,0V493h-8.3V435.9L757.9,435.9z M774.6,452c0-5.4-0.6-10.1-7.1-10.1h-1.2v19
			C772.2,461.5,774.6,457.9,774.6,452L774.6,452z"/>
		<path id="Fill-33" sketch:type="MSShapeGroup" fill="#020202" d="M810.9,435.9v6.5H802V493h-8.3v-50.6h-9.5v-6.5H810.9"/>
		<path id="Fill-34" sketch:type="MSShapeGroup" fill="#020202" d="M824,435.9l8.9,41.1l0,0v-2.4l2.4-13.7l5.4-25h7.1l6,57.1H846
			l-1.2-21.4l-0.6-10.7v-7.7l0,0l-1.2,8.3l-7.7,31.5H830l-7.7-39.3l0,0l-2.4,39.3h-8.3l4.8-57.1H824"/>
		<path id="Fill-35" sketch:type="MSShapeGroup" fill="#020202" d="M881.1,435.9v6.5h-13.7v17.9H880v6.5h-12.5v19.6h13.7v6.5h-22
			v-57.1H881.1"/>
		<path id="Fill-36" sketch:type="MSShapeGroup" fill="#020202" d="M893.6,452.6l1.2,19V493h-8.3v-57.1h7.7l14.3,43.5l0,0l-1.8-22.6
			v-20.2h8.3V493h-7.7L893,449l0,0L893.6,452.6"/>
		<path id="Fill-37" sketch:type="MSShapeGroup" fill="#020202" d="M945.4,435.9v6.5h-8.9V493h-8.3v-50.6h-9.5v-6.5H945.4"/>
		<path id="Fill-38" sketch:type="MSShapeGroup" fill="#020202" d="M995.4,464.5c0,10.1,0,29.2-16.1,29.2s-16.1-19-16.1-29.2
			c0-10.1,0-29.2,16.1-29.2C994.8,435.3,995.4,454.4,995.4,464.5L995.4,464.5z M972.2,464.5c0,11.9,1.2,22,7.1,22
			c6.5,0,7.1-10.1,7.1-22c0-11.9-0.6-22-7.1-22S972.2,452,972.2,464.5L972.2,464.5z"/>
		<path id="Fill-39" sketch:type="MSShapeGroup" fill="#020202" d="M1024.6,435.9v6.5h-13.7v17.9h12.5v6.5h-12.5V493h-8.3v-57.1
			H1024.6"/>
		<path id="Fill-40" sketch:type="MSShapeGroup" fill="#020202" d="M1066.9,435.9v6.5h-8.9V493h-8.3v-50.6h-9.5v-6.5H1066.9"/>
		<path id="Fill-41" sketch:type="MSShapeGroup" fill="#020202" d="M1078.8,435.9v22h12.5v-22h8.3V493h-8.3v-28.6h-12.5V493h-8.3
			v-57.1H1078.8"/>
		<path id="Fill-42" sketch:type="MSShapeGroup" fill="#020202" d="M1130,435.9v6.5h-13.7v17.9h12.5v6.5h-12.5v19.6h13.7v6.5h-22
			v-57.1H1130"/>
		<path id="Fill-43" sketch:type="MSShapeGroup" fill="#020202" d="M1172.2,435.9v6.5h-8.9V493h-8.3v-50.6h-9.5v-6.5H1172.2"/>
		<path id="Fill-44" sketch:type="MSShapeGroup" fill="#020202" d="M1175.8,435.9h9.5c6,0,15.5,0.6,15.5,14.9
			c0,5.4-1.8,13.7-8.3,14.9l11.3,28h-8.3l-11.3-28l0,0V493h-8.3L1175.8,435.9L1175.8,435.9z M1192.5,452c0-5.4-0.6-10.1-7.1-10.1
			h-1.2v19C1190.1,461.5,1192.5,457.9,1192.5,452L1192.5,452z"/>
		<path id="Fill-45" sketch:type="MSShapeGroup" fill="#020202" d="M1230.5,435.9v6.5h-13.7v17.9h12.5v6.5h-12.5v19.6h13.7v6.5h-22
			v-57.1H1230.5"/>
		<path id="Fill-46" sketch:type="MSShapeGroup" fill="#020202" d="M1251.4,435.9l13.1,57.1h-8.3l-2.4-11.3h-11.9l-2.4,11.3h-7.7
			l13.1-57.1H1251.4L1251.4,435.9z M1250.8,467.5l-3-20.8l0,0l-4.8,29.2h9.5L1250.8,467.5L1250.8,467.5z"/>
		<path id="Fill-47" sketch:type="MSShapeGroup" fill="#020202" d="M1287.7,444.8c-2.4-1.2-4.2-2.4-7.1-2.4c-4.8,0-7.1,3.6-7.1,7.1
			c0,2.4,0.6,4.2,2.4,6l6,6.5c5.4,5.4,8.9,8.9,8.9,16.7c0,7.7-5.4,14.9-14.3,14.9c-3,0-6.5-0.6-8.9-3v-7.7c2.4,1.8,4.8,3,8.3,3
			c4.8,0,7.1-3.6,7.1-7.7c0-11.3-17.3-13.7-17.3-28.6c0-7.7,4.8-14.9,13.7-14.9c3,0,6,0.6,8.3,1.8V444.8"/>
		<path id="Fill-48" sketch:type="MSShapeGroup" fill="#020202" d="M1304.4,435.9v41.7c0,7.1,2.4,8.9,6,8.9c5.4,0,6-3.6,6-8.3v-42.9
			h8.3v40.5c0,7.7,0,17.3-14.3,17.3c-13.1,0-14.3-8.3-14.3-18.5v-39.3h8.3"/>
		<path id="Fill-49" sketch:type="MSShapeGroup" fill="#020202" d="M1333.5,435.9h9.5c6,0,15.5,0.6,15.5,14.9
			c0,5.4-1.8,13.7-8.3,14.9l11.3,28h-8.3l-11.3-28l0,0V493h-8.3L1333.5,435.9L1333.5,435.9z M1349.6,452c0-5.4-0.6-10.1-7.1-10.1
			h-1.2v19C1347.8,461.5,1349.6,457.9,1349.6,452L1349.6,452z"/>
		<path id="Fill-50" sketch:type="MSShapeGroup" fill="#020202" d="M1368.6,435.9l7.7,26.2l0,0l1.2-7.1l5.4-19h8.9l-11.3,32.7V493
			h-8.3v-24.4l-11.9-32.7H1368.6"/>
		<path id="Fill-51" sketch:type="MSShapeGroup" fill="#020202" d="M193.6,127l-10.1,31.5l26.8-19.6l26.8,19.6L227,127l26.8-19.6
			h-33.3l-10.1-31.5l-10.1,32.1h-33.3L193.6,127"/>
		<path id="Fill-52" sketch:type="MSShapeGroup" fill="#020202" d="M450.8,20.4L450.8,20.4L280.5,62.7H621L450.8,20.4"/>
		<path id="Fill-53" sketch:type="MSShapeGroup" fill="#020202" d="M269.2,60.3c0.6,0,1.2,0,1.2,0l180.4-44.6l180.4,44.6
			c0.6,0,1.2,0,1.2,0c3,0,5.4-1.8,6-4.8c0.6-3-1.2-6-4.2-6.5L450.8,3.2L268,49c-3.6,0.6-5.4,3.6-4.2,7.1
			C264.5,58.5,266.9,60.3,269.2,60.3"/>
		<path id="Fill-54" sketch:type="MSShapeGroup" fill="#020202" d="M345.4,82.9H621V68H280.5v14.9H345.4"/>
		<path id="Fill-55" sketch:type="MSShapeGroup" fill="#020202" d="M460.3,95.4h1.8c0,3,2.4,5.4,6,5.4v1.2c0,0.6,0.6,1.8,1.8,1.8
			h0.6v156.5c17.3,2.4,33.9,4.8,50,6.5V103.8h0.6c1.2,0,1.8-0.6,1.8-1.8v-1.2c3.6,0,6-2.4,6-5.4h1.8c0.6,0,1.2-0.6,1.2-0.6v-5.4
			c0-0.6-0.6-0.6-1.2-0.6h-70.2c-0.6,0-1.2,0.6-1.2,0.6v4.8C459.1,94.8,459.7,95.4,460.3,95.4"/>
		<path id="Fill-56" sketch:type="MSShapeGroup" fill="#020202" d="M547.8,95.4h1.8c0,3,2.4,5.4,6,5.4v1.2c0,0.6,0.6,1.8,1.8,1.8
			h0.6V271c18.5,1.8,35.1,3,50,3.6V103.8h0.6c1.2,0,1.8-0.6,1.8-1.8v-1.2c3.6,0,6-2.4,6-5.4h1.2c0.6,0,1.2-0.6,1.2-0.6v-5.4
			c0-0.6-0.6-0.6-1.2-0.6h-69.6c-0.6,0-0.6,0.6-0.6,0.6v4.8C547.2,94.8,547.8,95.4,547.8,95.4"/>
		<path id="Fill-57" sketch:type="MSShapeGroup" fill="#020202" d="M284.1,95.4h1.8c0,3,2.4,5.4,6,5.4v1.2c0,0.6,0.6,1.8,1.8,1.8
			h0.6v113.7c16.1,5.4,32.7,10.7,50,16.1V103.8h0.6c1.2,0,1.8-0.6,1.8-1.8v-1.2c3.6,0,6-2.4,6-5.4h1.2c0.6,0,1.2-0.6,1.2-0.6v-5.4
			c0-0.6-0.6-0.6-1.2-0.6h-69.6c-0.6,0-1.2,0.6-1.2,0.6v4.8C283.5,94.8,284.1,95.4,284.1,95.4"/>
		<path id="Fill-58" sketch:type="MSShapeGroup" fill="#020202" d="M372.2,95.4h1.8c0,3,2.4,5.4,6,5.4v1.2c0,0.6,0.6,1.8,1.8,1.8
			h0.6V243c16.7,4.2,33.3,7.7,50,10.7v-150h0.6c1.2,0,1.8-0.6,1.8-1.8v-1.2c3.6,0,6-2.4,6-5.4h1.2c0.6,0,0.6-0.6,0.6-0.6v-5.4
			c0-1.2,0-1.2-0.6-1.2h-69.6c-0.6,0-1.2,0.6-1.2,0.6v5.4C371.6,94.8,371.6,95.4,372.2,95.4"/>
		<path id="Fill-59" sketch:type="MSShapeGroup" fill="#020202" d="M219.2,276.4c-39.3-27.4-69-59.5-91.1-83.9
			c17.9,39.3,103.6,199.4,339.3,304.2l35.7-78C365.7,377,280,318,219.2,276.4"/>
		<path id="Fill-60" sketch:type="MSShapeGroup" fill="#020202" d="M623.4,417.5L672.2,302c0,0-164.9,0-316.7-39.9
			c-152.4-40.5-249.4-105.4-249.4-105.4S235.9,342.5,623.4,417.5"/>
	</g>
</g>
</svg>
