<?xml version="1.0" encoding="utf-8"?>
<!-- Generator: Adobe Illustrator 18.1.0, SVG Export Plug-In . SVG Version: 6.00 Build 0)  -->
<!DOCTYPE svg PUBLIC "-//W3C//DTD SVG 1.1//EN" "http://www.w3.org/Graphics/SVG/1.1/DTD/svg11.dtd">
<svg version="1.1" id="Layer_1" xmlns="http://www.w3.org/2000/svg" xmlns:xlink="http://www.w3.org/1999/xlink" x="0px" y="0px"
	 viewBox="0 0 216 82.9" enable-background="new 0 0 216 82.9" xml:space="preserve">
<g>
	<path fill="#036A37" d="M121.9,13.1h5.2l-0.6,2.5h0.1c1.3-1.5,3.7-2.8,6-2.8c1.9,0,3.4,0.9,4.1,2.8c1.2-1.5,3.1-2.8,5.6-2.8
		c3,0,5.1,1.5,4,5.8l-6,24.1h-5.5l5.7-23.1c0.4-1.5,0.2-2.7-1.5-2.7c-1.4,0-2.6,0.8-3.2,3.1l-5.6,22.6h-5.5l5.7-23.1
		c0.4-1.5,0.2-2.7-1.5-2.7c-1.4,0-2.6,0.8-3.2,3.1l-5.6,22.6h-5.5L121.9,13.1z"/>
	<path fill="#036A37" d="M148.8,13.1h5.9L153,34.5h0.1l9-21.4h5.5l-19.6,40.4h-5.2l5.4-11.2L148.8,13.1z"/>
	<path fill="#003056" d="M169.9,0.1h9.1c8.6,0,9.5,2.3,9.5,11.6c0,5.7-0.8,8.2-5.6,9.7v0.1c4,0.4,5.4,2.5,5.4,6.5v9.3
		c0,1.5,0,3.7,0.4,5.4h-5.5c-0.6-1.1-0.7-2.1-0.7-3.8v-9.6c0-4-0.7-5.1-4.6-5.1h-2v18.5h-5.9V0.1z M175.8,19.2h1.5
		c4.7,0,5.3-0.9,5.3-7.3c0-6.3-0.4-6.9-4-6.9h-2.8V19.2z"/>
	<path fill="#003056" d="M199.6,0.1h6.8l8.7,42.6h-5.9l-1.9-10.9h-9.2l-1.9,10.9h-5.9L199.6,0.1z M199,26.9h7.5l-3.7-20.5h-0.1
		L199,26.9z"/>
	<g>
		<path fill="#003056" d="M112,56.6l1.5,6.9h0l0-0.4l0.4-2.3l0.9-4.2h1.2l1,9.6h-1.3l-0.2-3.6l-0.1-1.8l0-1.3h0L115,61l-1.1,5.2H113
			l-1.3-6.6h0l-0.4,6.6h-1.3l0.8-9.6H112z"/>
		<path fill="#003056" d="M118.4,56.6l1.3,4.4h0l0.2-1.2l0.9-3.2h1.5l-1.9,5.5v4.1H119v-4.1l-2-5.5H118.4z"/>
		<path fill="#003056" d="M125.6,56.6h1.6c1,0,2.6,0.1,2.6,2.5c0,0.9-0.3,2.3-1.4,2.5l1.9,4.7h-1.4l-1.9-4.7h0v4.7h-1.4V56.6z
			 M128.3,59.4c0-0.9-0.1-1.7-1.2-1.7h-0.2v3.2C127.9,61,128.3,60.4,128.3,59.4z"/>
		<path fill="#003056" d="M134.6,56.6v1.1h-2.3v3h2.1v1.1h-2.1v3.3h2.3v1.1H131v-9.6H134.6z"/>
		<path fill="#003056" d="M139.7,56.6v1.1h-1.5v8.5h-1.4v-8.5h-1.6v-1.1H139.7z"/>
		<path fill="#003056" d="M141.9,66.3h-1.4v-9.6h1.4V66.3z"/>
		<path fill="#003056" d="M143.2,56.6h1.6c1,0,2.6,0.1,2.6,2.5c0,0.9-0.3,2.3-1.4,2.5l1.9,4.7h-1.4l-1.9-4.7h0v4.7h-1.4V56.6z
			 M146,59.4c0-0.9-0.1-1.7-1.2-1.7h-0.2v3.2C145.6,61,146,60.4,146,59.4z"/>
		<path fill="#003056" d="M152.6,56.6v1.1h-2.3v3h2.1v1.1h-2.1v3.3h2.3v1.1h-3.7v-9.6H152.6z"/>
		<path fill="#003056" d="M155.3,56.6l1.5,6.9h0l0-0.4l0.4-2.3l0.9-4.2h1.2l1,9.6h-1.3l-0.2-3.6l-0.1-1.8l0-1.3h0l-0.2,1.4l-1.1,5.2
			h-0.9l-1.3-6.6h0l-0.4,6.6h-1.3l0.8-9.6H155.3z"/>
		<path fill="#003056" d="M164.7,56.6v1.1h-2.3v3h2.1v1.1h-2.1v3.3h2.3v1.1H161v-9.6H164.7z"/>
		<path fill="#003056" d="M166.8,59.5l0.2,3.2v3.5h-1.4v-9.6h1.3l2.4,7.3l0,0l-0.3-3.8v-3.4h1.4v9.6h-1.3l-2.4-7.4l0,0L166.8,59.5z"
			/>
		<path fill="#003056" d="M175.7,56.6v1.1h-1.5v8.5h-1.4v-8.5h-1.6v-1.1H175.7z"/>
		<path fill="#003056" d="M181.2,56.6l2.2,9.6h-1.4l-0.4-1.9h-2l-0.4,1.9h-1.3l2.2-9.6H181.2z M181.2,62l-0.5-3.5h0l-0.8,4.9h1.6
			L181.2,62z"/>
		<path fill="#003056" d="M188,58c-0.3-0.1-0.6-0.2-0.9-0.2c-1.9,0-1.9,2.6-1.9,3.8c0,1.3,0.1,3.7,2,3.7c0.3,0,0.6-0.1,0.8-0.2v1.1
			c-0.3,0.2-0.7,0.3-1.1,0.3c-2.8,0-3.2-2.8-3.2-4.8c0-1.9,0.3-5.1,3.1-5.1c0.5,0,0.8,0.1,1.2,0.3V58z"/>
		<path fill="#003056" d="M192.8,58c-0.3-0.1-0.6-0.2-0.9-0.2c-1.9,0-1.9,2.6-1.9,3.8c0,1.3,0.1,3.7,2,3.7c0.3,0,0.6-0.1,0.8-0.2
			v1.1c-0.3,0.2-0.7,0.3-1.1,0.3c-2.8,0-3.2-2.8-3.2-4.8c0-1.9,0.3-5.1,3.1-5.1c0.5,0,0.8,0.1,1.2,0.3V58z"/>
		<path fill="#003056" d="M198.8,61.4c0,1.7,0,4.9-2.7,4.9c-2.7,0-2.7-3.2-2.7-4.9c0-1.7,0-4.9,2.7-4.9
			C198.8,56.5,198.8,59.7,198.8,61.4z M194.9,61.4c0,2,0.2,3.7,1.2,3.7c1.1,0,1.2-1.7,1.2-3.7s-0.2-3.7-1.2-3.7
			C195,57.7,194.9,59.4,194.9,61.4z"/>
		<path fill="#003056" d="M201.3,56.6v7c0,1.2,0.4,1.5,1,1.5c0.9,0,1-0.6,1-1.4v-7.2h1.4v6.8c0,1.3,0,2.9-2.4,2.9
			c-2.2,0-2.4-1.4-2.4-3.1v-6.6H201.3z"/>
		<path fill="#003056" d="M207,59.5l0.2,3.2v3.5h-1.4v-9.6h1.3l2.4,7.3l0,0l-0.3-3.8v-3.4h1.4v9.6h-1.3l-2.4-7.4l0,0L207,59.5z"/>
		<path fill="#003056" d="M216,56.6v1.1h-1.5v8.5h-1.4v-8.5h-1.6v-1.1H216z"/>
		<path fill="#003056" d="M71.1,72.6v7c0,1.2,0.4,1.5,1,1.5c0.9,0,1-0.6,1-1.4v-7.2h1.4v6.8c0,1.3,0,2.9-2.4,2.9
			c-2.2,0-2.4-1.4-2.4-3.1v-6.6H71.1z"/>
		<path fill="#003056" d="M75.7,81.6c0-0.4,0.4-0.8,0.8-0.8c0.5,0,0.8,0.3,0.8,0.8c0,0.4-0.4,0.8-0.8,0.8
			C76.1,82.4,75.7,82,75.7,81.6z"/>
		<path fill="#003056" d="M81.8,74.1c-0.4-0.2-0.7-0.4-1.2-0.4c-0.8,0-1.2,0.6-1.2,1.2c0,0.4,0.1,0.7,0.4,1l1,1.1
			c0.9,0.9,1.5,1.5,1.5,2.8c0,1.4-0.9,2.5-2.4,2.5c-0.5,0-1.1-0.1-1.5-0.5v-1.3c0.4,0.3,0.8,0.5,1.4,0.5c0.8,0,1.2-0.6,1.2-1.3
			c0-1.9-2.9-2.3-2.9-4.8c0-1.4,0.8-2.5,2.3-2.5c0.5,0,1,0.1,1.4,0.3L81.8,74.1z"/>
		<path fill="#003056" d="M83,81.6c0-0.4,0.4-0.8,0.8-0.8c0.5,0,0.8,0.3,0.8,0.8c0,0.4-0.4,0.8-0.8,0.8C83.4,82.4,83,82,83,81.6z"/>
		<path fill="#003056" d="M90.1,72.6c1.6,0,3.4,0.1,3.4,5c0,4.4-1.6,4.6-4,4.6h-0.9v-9.6H90.1z M89.9,73.7v7.4
			c2.3,0.1,2.2-1.9,2.2-3.6C92.1,76.1,92.2,73.6,89.9,73.7z"/>
		<path fill="#003056" d="M98.4,72.6v1.1h-2.3v3h2.1v1.1h-2.1v3.3h2.3v1.1h-3.7v-9.6H98.4z"/>
		<path fill="#003056" d="M99.3,82.3v-9.6h1.6c1.2,0,2.7,0.1,2.7,2.6c0,1.9-0.8,2.9-2.9,2.8v4.3H99.3z M100.7,73.7v3.2
			c1.2,0.1,1.5-0.5,1.5-1.6c0-0.9-0.3-1.6-1.3-1.6H100.7z"/>
		<path fill="#003056" d="M106.6,72.6l2.2,9.6h-1.4l-0.4-1.9h-2l-0.4,1.9h-1.3l2.2-9.6H106.6z M106.5,78l-0.5-3.5h0l-0.8,4.9h1.6
			L106.5,78z"/>
		<path fill="#003056" d="M109.5,72.6h1.6c1,0,2.6,0.1,2.6,2.5c0,0.9-0.3,2.3-1.4,2.5l1.9,4.7h-1.4l-1.9-4.7h0v4.7h-1.4V72.6z
			 M112.3,75.4c0-0.9-0.1-1.7-1.2-1.7h-0.2v3.2C111.9,77,112.3,76.4,112.3,75.4z"/>
		<path fill="#003056" d="M118.4,72.6v1.1h-1.5v8.5h-1.4v-8.5h-1.6v-1.1H118.4z"/>
		<path fill="#003056" d="M120.5,72.6l1.5,6.9h0l0-0.4l0.4-2.3l0.9-4.2h1.2l1,9.6h-1.3l-0.2-3.6l-0.1-1.8l0-1.3h0l-0.2,1.4l-1.1,5.2
			h-0.9l-1.3-6.6h0l-0.4,6.6h-1.3l0.8-9.6H120.5z"/>
		<path fill="#003056" d="M130.2,72.6v1.1h-2.3v3h2.1v1.1h-2.1v3.3h2.3v1.1h-3.7v-9.6H130.2z"/>
		<path fill="#003056" d="M132.3,75.5l0.2,3.2v3.5h-1.4v-9.6h1.3l2.4,7.3l0,0l-0.3-3.8v-3.4h1.4v9.6h-1.3l-2.4-7.4l0,0L132.3,75.5z"
			/>
		<path fill="#003056" d="M141,72.6v1.1h-1.5v8.5h-1.4v-8.5h-1.6v-1.1H141z"/>
		<path fill="#003056" d="M149.4,77.4c0,1.7,0,4.9-2.7,4.9c-2.7,0-2.7-3.2-2.7-4.9c0-1.7,0-4.9,2.7-4.9
			C149.3,72.5,149.4,75.7,149.4,77.4z M145.4,77.4c0,2,0.2,3.7,1.2,3.7c1.1,0,1.2-1.7,1.2-3.7s-0.2-3.7-1.2-3.7
			C145.6,73.7,145.4,75.4,145.4,77.4z"/>
		<path fill="#003056" d="M154.3,72.6v1.1H152v3h2.1v1.1H152v4.4h-1.4v-9.6H154.3z"/>
		<path fill="#003056" d="M161.4,72.6v1.1h-1.5v8.5h-1.4v-8.5h-1.6v-1.1H161.4z"/>
		<path fill="#003056" d="M163.3,72.6v3.7h2.1v-3.7h1.4v9.6h-1.4v-4.8h-2.1v4.8H162v-9.6H163.3z"/>
		<path fill="#003056" d="M171.9,72.6v1.1h-2.3v3h2.1v1.1h-2.1v3.3h2.3v1.1h-3.7v-9.6H171.9z"/>
		<path fill="#003056" d="M179.1,72.6v1.1h-1.5v8.5h-1.4v-8.5h-1.6v-1.1H179.1z"/>
		<path fill="#003056" d="M179.7,72.6h1.6c1,0,2.6,0.1,2.6,2.5c0,0.9-0.3,2.3-1.4,2.5l1.9,4.7H183l-1.9-4.7h0v4.7h-1.4V72.6z
			 M182.5,75.4c0-0.9-0.1-1.7-1.2-1.7h-0.2v3.2C182.1,77,182.5,76.4,182.5,75.4z"/>
		<path fill="#003056" d="M188.9,72.6v1.1h-2.3v3h2.1v1.1h-2.1v3.3h2.3v1.1h-3.7v-9.6H188.9z"/>
		<path fill="#003056" d="M192.3,72.6l2.2,9.6h-1.4l-0.4-1.9h-2l-0.4,1.9H189l2.2-9.6H192.3z M192.3,78l-0.5-3.5h0l-0.8,4.9h1.6
			L192.3,78z"/>
		<path fill="#003056" d="M198.5,74.1c-0.4-0.2-0.7-0.4-1.2-0.4c-0.8,0-1.2,0.6-1.2,1.2c0,0.4,0.1,0.7,0.4,1l1,1.1
			c0.9,0.9,1.5,1.5,1.5,2.8c0,1.4-0.9,2.5-2.4,2.5c-0.5,0-1.1-0.1-1.5-0.5v-1.3c0.4,0.3,0.8,0.5,1.4,0.5c0.8,0,1.2-0.6,1.2-1.3
			c0-1.9-2.9-2.3-2.9-4.8c0-1.4,0.8-2.5,2.3-2.5c0.5,0,1,0.1,1.4,0.3L198.5,74.1z"/>
		<path fill="#003056" d="M201.3,72.6v7c0,1.2,0.4,1.5,1,1.5c0.9,0,1-0.6,1-1.4v-7.2h1.4v6.8c0,1.3,0,2.9-2.4,2.9
			c-2.2,0-2.4-1.4-2.4-3.1v-6.6H201.3z"/>
		<path fill="#003056" d="M206.2,72.6h1.6c1,0,2.6,0.1,2.6,2.5c0,0.9-0.3,2.3-1.4,2.5l1.9,4.7h-1.4l-1.9-4.7h0v4.7h-1.4V72.6z
			 M208.9,75.4c0-0.9-0.1-1.7-1.2-1.7h-0.2v3.2C208.6,77,208.9,76.4,208.9,75.4z"/>
		<path fill="#003056" d="M212.1,72.6l1.3,4.4h0l0.2-1.2l0.9-3.2h1.5l-1.9,5.5v4.1h-1.4v-4.1l-2-5.5H212.1z"/>
	</g>
	<path fill="#003056" d="M14.7,20.8l-1.7,5.3l4.5-3.3l4.5,3.3l-1.7-5.3l4.5-3.3l-5.6,0l-1.7-5.4l-1.7,5.4l-5.6,0L14.7,20.8z"/>
	<polygon fill="#A0A1A2" points="57.9,2.9 57.9,2.9 29.3,10 86.5,10 	"/>
	<path fill="#A0A1A2" d="M27.4,9.6c0.1,0,0.2,0,0.2,0l30.3-7.5l30.3,7.5c0.1,0,0.2,0,0.2,0c0.5,0,0.9-0.3,1-0.8
		c0.1-0.5-0.2-1.1-0.7-1.2L57.9,0l0,0l0,0L27.2,7.6c-0.5,0.1-0.9,0.7-0.7,1.2C26.5,9.3,27,9.6,27.4,9.6z"/>
	<polygon fill="#A0A1A2" points="40.2,13.4 45.9,13.4 55.1,13.4 60.9,13.4 70.1,13.4 75.8,13.4 85,13.4 86.5,13.4 86.5,10.9 
		29.3,10.9 29.3,13.4 31,13.4 	"/>
	<path fill="#A0A1A2" d="M59.5,15.4h0.3c0,0.5,0.4,0.9,1,0.9v0.2c0,0.1,0.1,0.3,0.3,0.3h0.1v26.3c2.9,0.4,5.7,0.8,8.4,1.1V16.8h0.1
		c0.2,0,0.3-0.1,0.3-0.3v-0.2c0.6,0,1-0.4,1-0.9h0.3c0.1,0,0.2-0.1,0.2-0.1v-0.9c0-0.1-0.1-0.1-0.2-0.1H59.5c-0.1,0-0.2,0.1-0.2,0.1
		v0.9C59.3,15.4,59.4,15.4,59.5,15.4z"/>
	<path fill="#A0A1A2" d="M74.2,15.4h0.3c0,0.5,0.4,0.9,1,0.9v0.2c0,0.1,0.1,0.3,0.3,0.3h0.1V45c3.1,0.3,5.9,0.5,8.4,0.6V16.8h0.1
		c0.2,0,0.3-0.1,0.3-0.3v-0.2c0.6,0,1-0.4,1-0.9h0.2c0.1,0,0.2-0.1,0.2-0.1v-0.9c0-0.1-0.1-0.1-0.2-0.1H74.2c-0.1,0-0.1,0.1-0.1,0.1
		v0.9C74.1,15.4,74.1,15.4,74.2,15.4z"/>
	<path fill="#A0A1A2" d="M29.9,15.4h0.3c0,0.5,0.4,0.9,1,0.9v0.2c0,0.1,0.1,0.3,0.3,0.3h0.1V36c2.7,0.9,5.5,1.8,8.4,2.7V16.8H40
		c0.2,0,0.3-0.1,0.3-0.3v-0.2c0.6,0,1-0.4,1-0.9h0.2c0.1,0,0.2-0.1,0.2-0.1v-0.9c0-0.1-0.1-0.1-0.2-0.1H29.9c-0.1,0-0.2,0.1-0.2,0.1
		v0.9C29.8,15.4,29.8,15.4,29.9,15.4z"/>
	<path fill="#A0A1A2" d="M44.7,15.4H45c0,0.5,0.4,0.9,1,0.9v0.2c0,0.1,0.1,0.3,0.3,0.3h0.1v23.5c2.8,0.7,5.6,1.3,8.4,1.8V16.8h0.1
		c0.2,0,0.3-0.1,0.3-0.3v-0.2c0.6,0,1-0.4,1-0.9h0.2c0.1,0,0.1-0.1,0.1-0.1v-0.9c0-0.1-0.1-0.1-0.1-0.1H44.7c-0.1,0-0.2,0.1-0.2,0.1
		v0.9C44.5,15.4,44.6,15.4,44.7,15.4z"/>
	<path fill="#036A37" d="M19,45.9c-6.6-4.6-11.6-10-15.3-14.1c3,6.6,17.4,33.5,57,51.1l6-13.1C43.6,62.7,29.2,52.9,19,45.9z"/>
	<path fill="#003056" d="M86.9,69.5l8.2-19.4c0,0-27.7,0-53.2-6.7C16.3,36.7,0,25.8,0,25.8S21.7,56.9,86.9,69.5z"/>
</g>
</svg>
