<?xml version="1.0" encoding="utf-8"?>
<!-- Generator: Adobe Illustrator 18.0.0, SVG Export Plug-In . SVG Version: 6.00 Build 0)  -->
<!DOCTYPE svg PUBLIC "-//W3C//DTD SVG 1.1//EN" "http://www.w3.org/Graphics/SVG/1.1/DTD/svg11.dtd">
<svg version="1.1" id="icon-people" class="svg-icon" xmlns="http://www.w3.org/2000/svg" xmlns:xlink="http://www.w3.org/1999/xlink" x="0px" y="0px"
	 viewBox="0 0 100 100" enable-background="new 0 0 100 100" xml:space="preserve">
<g id="Your_Icon">
	<path fill="#FFFFFF" d="M56.7,37.2c-2,1.1-4.3,1.7-6.7,1.7c-3.8,0-7.4-1.4-10-4.1c-2.7-2.7-4.2-6.2-4.2-10c0-5.2,2.8-10,7.5-12.5
		c2-1.1,4.3-1.7,6.7-1.7c3.8,0,7.4,1.4,10,4.1c2.7,2.7,4.2,6.2,4.2,10C64.2,29.9,61.4,34.7,56.7,37.2L56.7,37.2z"/>
	<path fill="#FFFFFF" d="M82,45.3c-1.5,0.8-3.3,1.3-5,1.3c-2.8,0-5.5-1.1-7.5-3.1c-2-2-3.1-4.7-3.2-7.5c0-3.9,2.1-7.6,5.6-9.4
		c1.5-0.8,3.3-1.3,5-1.3c2.8,0,5.5,1.1,7.5,3.1c2,2,3.1,4.7,3.2,7.5C87.6,39.8,85.4,43.4,82,45.3L82,45.3z"/>
	<path fill="#FFFFFF" d="M61.5,38.6c-1,0.9-2.1,1.7-3.4,2.3c-2.5,1.3-5.3,2.1-8.1,2.1H50c-4.3,0-8.3-1.6-11.5-4.5
		c-1.7,1.3-3.3,2.8-4.5,4.6l0.7,0.5c4.7,3.4,7.5,8.9,7.5,14.7c0,4.5-1.8,10.1-4.9,14.7c3.4,4.5,7.9,7.6,12.7,7.6
		c4.9,0,9.3-3.2,12.7-7.6c-3.1-4.6-4.9-10.2-4.9-14.8c0-5.8,2.8-11.3,7.5-14.7l0.6-0.5C64.7,41.4,63.2,39.8,61.5,38.6z"/>
	<path fill="#FFFFFF" d="M85.6,46.4c-0.8,0.7-1.6,1.4-2.5,1.9c-1.9,1-3.9,1.7-6.1,1.7h-0.1c-3.2,0-6.3-1.4-8.6-3.5
		c-3.6,2.7-6,6.9-6,11.8c0,8.1,6.6,19.7,14.7,19.7s14.7-11.6,14.7-19.8C91.6,53.4,89.2,49,85.6,46.4z"/>
	<path fill="#FFFFFF" d="M28.2,45.3c-1.5,0.8-3.3,1.3-5,1.3c-2.8,0-5.5-1.1-7.5-3.1c-2-2-3.1-4.7-3.2-7.5c0-3.9,2.1-7.6,5.6-9.4
		c1.5-0.8,3.3-1.3,5-1.3c2.8,0,5.5,1.1,7.5,3.1c2,2,3.1,4.7,3.2,7.5C33.8,39.8,31.6,43.4,28.2,45.3L28.2,45.3z"/>
	<path fill="#FFFFFF" d="M31.8,46.4c-0.8,0.7-1.6,1.4-2.5,1.9c-1.9,1-3.9,1.7-6.1,1.7h-0.1c-3.2,0-6.3-1.4-8.6-3.5
		c-3.6,2.7-6,6.9-6,11.8C8.4,66.4,15,78,23.1,78s14.7-11.6,14.7-19.8C37.8,53.4,35.4,49,31.8,46.4z"/>
</g>
</svg>
