<?xml version="1.0" encoding="utf-8"?>
<!-- Generator: Adobe Illustrator 18.1.0, SVG Export Plug-In . SVG Version: 6.00 Build 0)  -->
<!DOCTYPE svg PUBLIC "-//W3C//DTD SVG 1.1//EN" "http://www.w3.org/Graphics/SVG/1.1/DTD/svg11.dtd">
<svg version="1.1" id="Layer_1" xmlns="http://www.w3.org/2000/svg" xmlns:xlink="http://www.w3.org/1999/xlink" x="0px" y="0px"
	 viewBox="0 0 396 306" enable-background="new 0 0 396 306" xml:space="preserve">
<g>
	<path fill="#036A37" d="M211.9,123.6h5.2l-0.6,2.5h0.1c1.3-1.5,3.7-2.8,6-2.8c1.9,0,3.4,0.9,4.1,2.8c1.2-1.5,3.1-2.8,5.6-2.8
		c3,0,5.1,1.5,4,5.8l-6,24.1h-5.5l5.7-23.1c0.4-1.5,0.2-2.7-1.5-2.7c-1.4,0-2.6,0.8-3.2,3.1l-5.6,22.6h-5.5l5.7-23.1
		c0.4-1.5,0.2-2.7-1.5-2.7c-1.4,0-2.6,0.8-3.2,3.1l-5.6,22.6h-5.5L211.9,123.6z"/>
	<path fill="#036A37" d="M238.7,123.6h5.9L243,145h0.1l9-21.4h5.5L238,163.9h-5.2l5.4-11.2L238.7,123.6z"/>
	<path fill="#003056" d="M259.9,110.6h9.1c8.6,0,9.5,2.3,9.5,11.6c0,5.7-0.8,8.2-5.6,9.7v0.1c4,0.4,5.4,2.5,5.4,6.5v9.3
		c0,1.5,0,3.7,0.4,5.4h-5.5c-0.6-1.1-0.7-2.1-0.7-3.8v-9.6c0-4-0.7-5.1-4.6-5.1h-2v18.5h-5.9V110.6z M265.8,129.7h1.5
		c4.7,0,5.3-0.9,5.3-7.3c0-6.3-0.4-6.9-4-6.9h-2.8V129.7z"/>
	<path fill="#003056" d="M289.6,110.6h6.8l8.7,42.6h-5.9l-1.9-10.9h-9.2l-1.9,10.9h-5.9L289.6,110.6z M289,137.4h7.5l-3.7-20.5h-0.1
		L289,137.4z"/>
	<g>
		<path fill="#003056" d="M201.9,167.1l1.5,6.9h0l0-0.4l0.4-2.3l0.9-4.2h1.2l1,9.6h-1.3l-0.2-3.6l-0.1-1.8l0-1.3h0l-0.2,1.4
			l-1.1,5.2H203l-1.3-6.6h0l-0.4,6.6h-1.3l0.8-9.6H201.9z"/>
		<path fill="#003056" d="M208.4,167.1l1.3,4.4h0l0.2-1.2l0.9-3.2h1.5l-1.9,5.5v4.1H209v-4.1l-2-5.5H208.4z"/>
		<path fill="#003056" d="M215.6,167.1h1.6c1,0,2.6,0.1,2.6,2.5c0,0.9-0.3,2.3-1.4,2.5l1.9,4.7h-1.4l-1.9-4.7h0v4.7h-1.4V167.1z
			 M218.3,169.9c0-0.9-0.1-1.7-1.2-1.7h-0.2v3.2C217.9,171.5,218.3,170.9,218.3,169.9z"/>
		<path fill="#003056" d="M224.6,167.1v1.1h-2.3v3h2.1v1.1h-2.1v3.3h2.3v1.1H221v-9.6H224.6z"/>
		<path fill="#003056" d="M229.7,167.1v1.1h-1.5v8.5h-1.4v-8.5h-1.6v-1.1H229.7z"/>
		<path fill="#003056" d="M231.9,176.8h-1.4v-9.6h1.4V176.8z"/>
		<path fill="#003056" d="M233.2,167.1h1.6c1,0,2.6,0.1,2.6,2.5c0,0.9-0.3,2.3-1.4,2.5l1.9,4.7h-1.4l-1.9-4.7h0v4.7h-1.4V167.1z
			 M235.9,169.9c0-0.9-0.1-1.7-1.2-1.7h-0.2v3.2C235.6,171.5,235.9,170.9,235.9,169.9z"/>
		<path fill="#003056" d="M242.6,167.1v1.1h-2.3v3h2.1v1.1h-2.1v3.3h2.3v1.1h-3.7v-9.6H242.6z"/>
		<path fill="#003056" d="M245.3,167.1l1.5,6.9h0l0-0.4l0.4-2.3l0.9-4.2h1.2l1,9.6h-1.3l-0.2-3.6l-0.1-1.8l0-1.3h0l-0.2,1.4
			l-1.1,5.2h-0.9l-1.3-6.6h0l-0.4,6.6h-1.3l0.8-9.6H245.3z"/>
		<path fill="#003056" d="M254.7,167.1v1.1h-2.3v3h2.1v1.1h-2.1v3.3h2.3v1.1H251v-9.6H254.7z"/>
		<path fill="#003056" d="M256.8,170l0.2,3.2v3.5h-1.4v-9.6h1.3l2.4,7.3l0,0l-0.3-3.8v-3.4h1.4v9.6h-1.3l-2.4-7.4l0,0L256.8,170z"/>
		<path fill="#003056" d="M265.7,167.1v1.1h-1.5v8.5h-1.4v-8.5h-1.6v-1.1H265.7z"/>
		<path fill="#003056" d="M271.2,167.1l2.2,9.6h-1.4l-0.4-1.9h-2l-0.4,1.9h-1.3l2.2-9.6H271.2z M271.2,172.5l-0.5-3.5h0l-0.8,4.9
			h1.6L271.2,172.5z"/>
		<path fill="#003056" d="M278,168.5c-0.3-0.1-0.6-0.2-0.9-0.2c-1.9,0-1.9,2.6-1.9,3.8c0,1.3,0.1,3.7,2,3.7c0.3,0,0.6-0.1,0.8-0.2
			v1.1c-0.3,0.2-0.7,0.3-1.1,0.3c-2.8,0-3.2-2.8-3.2-4.8c0-1.9,0.3-5.1,3.1-5.1c0.5,0,0.8,0.1,1.2,0.3V168.5z"/>
		<path fill="#003056" d="M282.8,168.5c-0.3-0.1-0.6-0.2-0.9-0.2c-1.9,0-1.9,2.6-1.9,3.8c0,1.3,0.1,3.7,2,3.7c0.3,0,0.6-0.1,0.8-0.2
			v1.1c-0.3,0.2-0.7,0.3-1.1,0.3c-2.8,0-3.2-2.8-3.2-4.8c0-1.9,0.3-5.1,3.1-5.1c0.5,0,0.8,0.1,1.2,0.3V168.5z"/>
		<path fill="#003056" d="M288.8,171.9c0,1.7,0,4.9-2.7,4.9c-2.7,0-2.7-3.2-2.7-4.9c0-1.7,0-4.9,2.7-4.9
			C288.7,167,288.8,170.2,288.8,171.9z M284.9,171.9c0,2,0.2,3.7,1.2,3.7s1.2-1.7,1.2-3.7c0-2-0.2-3.7-1.2-3.7
			S284.9,169.9,284.9,171.9z"/>
		<path fill="#003056" d="M291.3,167.1v7c0,1.2,0.4,1.5,1,1.5c0.9,0,1-0.6,1-1.4v-7.2h1.4v6.8c0,1.3,0,2.9-2.4,2.9
			c-2.2,0-2.4-1.4-2.4-3.1v-6.6H291.3z"/>
		<path fill="#003056" d="M297,170l0.2,3.2v3.5h-1.4v-9.6h1.3l2.4,7.3l0,0l-0.3-3.8v-3.4h1.4v9.6h-1.3l-2.4-7.4l0,0L297,170z"/>
		<path fill="#003056" d="M306,167.1v1.1h-1.5v8.5h-1.4v-8.5h-1.6v-1.1H306z"/>
		<path fill="#003056" d="M161.1,183.1v7c0,1.2,0.4,1.5,1,1.5c0.9,0,1-0.6,1-1.4v-7.2h1.4v6.8c0,1.3,0,2.9-2.4,2.9
			c-2.2,0-2.4-1.4-2.4-3.1v-6.6H161.1z"/>
		<path fill="#003056" d="M165.7,192.1c0-0.4,0.4-0.8,0.8-0.8c0.5,0,0.8,0.3,0.8,0.8c0,0.4-0.4,0.8-0.8,0.8
			C166.1,192.9,165.7,192.5,165.7,192.1z"/>
		<path fill="#003056" d="M171.8,184.6c-0.4-0.2-0.7-0.4-1.2-0.4c-0.8,0-1.2,0.6-1.2,1.2c0,0.4,0.1,0.7,0.4,1l1,1.1
			c0.9,0.9,1.5,1.5,1.5,2.8c0,1.4-0.9,2.5-2.4,2.5c-0.5,0-1.1-0.1-1.5-0.5v-1.3c0.4,0.3,0.8,0.5,1.4,0.5c0.8,0,1.2-0.6,1.2-1.3
			c0-1.9-2.9-2.3-2.9-4.8c0-1.4,0.8-2.5,2.3-2.5c0.5,0,1,0.1,1.4,0.3L171.8,184.6z"/>
		<path fill="#003056" d="M173,192.1c0-0.4,0.4-0.8,0.8-0.8c0.5,0,0.8,0.3,0.8,0.8c0,0.4-0.4,0.8-0.8,0.8
			C173.4,192.9,173,192.5,173,192.1z"/>
		<path fill="#003056" d="M180.1,183.1c1.6,0,3.4,0.1,3.4,5c0,4.4-1.6,4.6-4,4.6h-0.9v-9.6H180.1z M179.9,184.2v7.4
			c2.3,0.1,2.2-1.9,2.2-3.6C182.1,186.6,182.2,184.1,179.9,184.2z"/>
		<path fill="#003056" d="M188.4,183.1v1.1h-2.3v3h2.1v1.1h-2.1v3.3h2.3v1.1h-3.7v-9.6H188.4z"/>
		<path fill="#003056" d="M189.3,192.8v-9.6h1.6c1.2,0,2.7,0.1,2.7,2.6c0,1.9-0.8,2.9-2.9,2.8v4.3H189.3z M190.7,184.2v3.2
			c1.2,0.1,1.5-0.5,1.5-1.6c0-0.9-0.3-1.6-1.3-1.6H190.7z"/>
		<path fill="#003056" d="M196.6,183.1l2.2,9.6h-1.4l-0.4-1.9h-2l-0.4,1.9h-1.3l2.2-9.6H196.6z M196.5,188.5L196,185h0l-0.8,4.9h1.6
			L196.5,188.5z"/>
		<path fill="#003056" d="M199.5,183.1h1.6c1,0,2.6,0.1,2.6,2.5c0,0.9-0.3,2.3-1.4,2.5l1.9,4.7h-1.4l-1.9-4.7h0v4.7h-1.4V183.1z
			 M202.3,185.9c0-0.9-0.1-1.7-1.2-1.7h-0.2v3.2C201.9,187.5,202.3,186.9,202.3,185.9z"/>
		<path fill="#003056" d="M208.4,183.1v1.1h-1.5v8.5h-1.4v-8.5h-1.6v-1.1H208.4z"/>
		<path fill="#003056" d="M210.5,183.1l1.5,6.9h0l0-0.4l0.4-2.3l0.9-4.2h1.2l1,9.6h-1.3l-0.2-3.6l-0.1-1.8l0-1.3h0l-0.2,1.4
			l-1.1,5.2h-0.9l-1.3-6.6h0l-0.4,6.6h-1.3l0.8-9.6H210.5z"/>
		<path fill="#003056" d="M220.2,183.1v1.1h-2.3v3h2.1v1.1h-2.1v3.3h2.3v1.1h-3.7v-9.6H220.2z"/>
		<path fill="#003056" d="M222.3,186l0.2,3.2v3.5h-1.4v-9.6h1.3l2.4,7.3l0,0l-0.3-3.8v-3.4h1.4v9.6h-1.3l-2.4-7.4l0,0L222.3,186z"/>
		<path fill="#003056" d="M231,183.1v1.1h-1.5v8.5h-1.4v-8.5h-1.6v-1.1H231z"/>
		<path fill="#003056" d="M239.3,187.9c0,1.7,0,4.9-2.7,4.9c-2.7,0-2.7-3.2-2.7-4.9c0-1.7,0-4.9,2.7-4.9
			C239.3,183,239.3,186.2,239.3,187.9z M235.4,187.9c0,2,0.2,3.7,1.2,3.7s1.2-1.7,1.2-3.7c0-2-0.2-3.7-1.2-3.7
			S235.4,185.9,235.4,187.9z"/>
		<path fill="#003056" d="M244.3,183.1v1.1H242v3h2.1v1.1H242v4.4h-1.4v-9.6H244.3z"/>
		<path fill="#003056" d="M251.4,183.1v1.1h-1.5v8.5h-1.4v-8.5h-1.6v-1.1H251.4z"/>
		<path fill="#003056" d="M253.3,183.1v3.7h2.1v-3.7h1.4v9.6h-1.4V188h-2.1v4.8H252v-9.6H253.3z"/>
		<path fill="#003056" d="M261.9,183.1v1.1h-2.3v3h2.1v1.1h-2.1v3.3h2.3v1.1h-3.7v-9.6H261.9z"/>
		<path fill="#003056" d="M269.1,183.1v1.1h-1.5v8.5h-1.4v-8.5h-1.6v-1.1H269.1z"/>
		<path fill="#003056" d="M269.7,183.1h1.6c1,0,2.6,0.1,2.6,2.5c0,0.9-0.3,2.3-1.4,2.5l1.9,4.7H273l-1.9-4.7h0v4.7h-1.4V183.1z
			 M272.5,185.9c0-0.9-0.1-1.7-1.2-1.7h-0.2v3.2C272.1,187.5,272.5,186.9,272.5,185.9z"/>
		<path fill="#003056" d="M278.9,183.1v1.1h-2.3v3h2.1v1.1h-2.1v3.3h2.3v1.1h-3.7v-9.6H278.9z"/>
		<path fill="#003056" d="M282.3,183.1l2.2,9.6h-1.4l-0.4-1.9h-2l-0.4,1.9H279l2.2-9.6H282.3z M282.3,188.5l-0.5-3.5h0l-0.8,4.9h1.6
			L282.3,188.5z"/>
		<path fill="#003056" d="M288.5,184.6c-0.4-0.2-0.7-0.4-1.2-0.4c-0.8,0-1.2,0.6-1.2,1.2c0,0.4,0.1,0.7,0.4,1l1,1.1
			c0.9,0.9,1.5,1.5,1.5,2.8c0,1.4-0.9,2.5-2.4,2.5c-0.5,0-1.1-0.1-1.5-0.5v-1.3c0.4,0.3,0.8,0.5,1.4,0.5c0.8,0,1.2-0.6,1.2-1.3
			c0-1.9-2.9-2.3-2.9-4.8c0-1.4,0.8-2.5,2.3-2.5c0.5,0,1,0.1,1.4,0.3L288.5,184.6z"/>
		<path fill="#003056" d="M291.3,183.1v7c0,1.2,0.4,1.5,1,1.5c0.9,0,1-0.6,1-1.4v-7.2h1.4v6.8c0,1.3,0,2.9-2.4,2.9
			c-2.2,0-2.4-1.4-2.4-3.1v-6.6H291.3z"/>
		<path fill="#003056" d="M296.2,183.1h1.6c1,0,2.6,0.1,2.6,2.5c0,0.9-0.3,2.3-1.4,2.5l1.9,4.7h-1.4l-1.9-4.7h0v4.7h-1.4V183.1z
			 M298.9,185.9c0-0.9-0.1-1.7-1.2-1.7h-0.2v3.2C298.6,187.5,298.9,186.9,298.9,185.9z"/>
		<path fill="#003056" d="M302.1,183.1l1.3,4.4h0l0.2-1.2l0.9-3.2h1.5l-1.9,5.5v4.1h-1.4v-4.1l-2-5.5H302.1z"/>
	</g>
	<path fill="#003056" d="M104.7,131.3l-1.7,5.3l4.5-3.3l4.5,3.3l-1.7-5.3l4.5-3.3l-5.6,0l-1.7-5.4l-1.7,5.4l-5.6,0L104.7,131.3z"/>
	<polygon fill="#A0A1A2" points="147.9,113.4 147.9,113.4 119.3,120.5 176.5,120.5 	"/>
	<path fill="#A0A1A2" d="M117.4,120.1c0.1,0,0.2,0,0.2,0l30.3-7.5l30.3,7.5c0.1,0,0.2,0,0.2,0c0.5,0,0.9-0.3,1-0.8
		c0.1-0.5-0.2-1.1-0.7-1.2l-30.7-7.6l0,0l0,0l-30.7,7.6c-0.5,0.1-0.9,0.7-0.7,1.2C116.5,119.8,116.9,120.1,117.4,120.1z"/>
	<polygon fill="#A0A1A2" points="130.2,123.9 135.9,123.9 145.1,123.9 150.9,123.9 160.1,123.9 165.8,123.9 175,123.9 176.5,123.9 
		176.5,121.4 119.3,121.4 119.3,123.9 121,123.9 	"/>
	<path fill="#A0A1A2" d="M149.5,125.9h0.3c0,0.5,0.4,0.9,1,0.9v0.2c0,0.1,0.1,0.3,0.3,0.3h0.1v26.3c2.9,0.4,5.7,0.8,8.4,1.1v-27.5
		h0.1c0.2,0,0.3-0.1,0.3-0.3v-0.2c0.6,0,1-0.4,1-0.9h0.3c0.1,0,0.2-0.1,0.2-0.1v-0.9c0-0.1-0.1-0.1-0.2-0.1h-11.7
		c-0.1,0-0.2,0.1-0.2,0.1v0.9C149.3,125.9,149.4,125.9,149.5,125.9z"/>
	<path fill="#A0A1A2" d="M164.2,125.9h0.3c0,0.5,0.4,0.9,1,0.9v0.2c0,0.1,0.1,0.3,0.3,0.3h0.1v28.1c3.1,0.3,5.9,0.5,8.4,0.6v-28.8
		h0.1c0.2,0,0.3-0.1,0.3-0.3v-0.2c0.6,0,1-0.4,1-0.9h0.2c0.1,0,0.2-0.1,0.2-0.1v-0.9c0-0.1-0.1-0.1-0.2-0.1h-11.7
		c-0.1,0-0.1,0.1-0.1,0.1v0.9C164.1,125.9,164.1,125.9,164.2,125.9z"/>
	<path fill="#A0A1A2" d="M119.9,125.9h0.3c0,0.5,0.4,0.9,1,0.9v0.2c0,0.1,0.1,0.3,0.3,0.3h0.1v19.1c2.7,0.9,5.5,1.8,8.4,2.7v-21.8
		h0.1c0.2,0,0.3-0.1,0.3-0.3v-0.2c0.6,0,1-0.4,1-0.9h0.2c0.1,0,0.2-0.1,0.2-0.1v-0.9c0-0.1-0.1-0.1-0.2-0.1h-11.7
		c-0.1,0-0.2,0.1-0.2,0.1v0.9C119.8,125.9,119.8,125.9,119.9,125.9z"/>
	<path fill="#A0A1A2" d="M134.7,125.9h0.3c0,0.5,0.4,0.9,1,0.9v0.2c0,0.1,0.1,0.3,0.3,0.3h0.1v23.5c2.8,0.7,5.6,1.3,8.4,1.8v-25.2
		h0.1c0.2,0,0.3-0.1,0.3-0.3v-0.2c0.6,0,1-0.4,1-0.9h0.2c0.1,0,0.1-0.1,0.1-0.1v-0.9c0-0.1-0.1-0.1-0.1-0.1h-11.7
		c-0.1,0-0.2,0.1-0.2,0.1v0.9C134.5,125.9,134.6,125.9,134.7,125.9z"/>
	<path fill="#036A37" d="M109,156.4c-6.6-4.6-11.6-10-15.3-14.1c3,6.6,17.4,33.5,57,51.1l6-13.1C133.6,173.2,119.2,163.4,109,156.4z
		"/>
	<path fill="#003056" d="M176.9,180l8.2-19.4c0,0-27.7,0-53.2-6.7c-25.5-6.7-41.8-17.7-41.8-17.7S111.7,167.4,176.9,180z"/>
</g>
</svg>
