<?xml version="1.0" encoding="UTF-8" standalone="no"?>
<svg width="217px" height="84px" viewBox="0 0 217 84" version="1.1" xmlns="http://www.w3.org/2000/svg" xmlns:xlink="http://www.w3.org/1999/xlink" xmlns:sketch="http://www.bohemiancoding.com/sketch/ns">
    <!-- Generator: Sketch 3.0.4 (8054) - http://www.bohemiancoding.com/sketch -->
    <title>Imported Layers</title>
    <desc>Created with Sketch.</desc>
    <defs></defs>
    <g id="Page-1" stroke="none" stroke-width="1" fill="none" fill-rule="evenodd" sketch:type="MSPage">
        <g id="Imported-Layers" sketch:type="MSLayerGroup" transform="translate(1.000000, 1.000000)" fill="#3B3B3B">
            <path d="M121.426,12.789 L126.62,12.789 L126.002,15.267 L126.121,15.267 C127.385,13.734 129.774,12.435 132.073,12.435 C133.963,12.435 135.498,13.379 136.21,15.267 C137.46,13.792 139.334,12.435 141.811,12.435 C144.817,12.435 146.871,13.91 145.785,18.275 L139.793,42.407 L134.248,42.407 L139.977,19.338 C140.36,17.804 140.224,16.683 138.513,16.683 C137.155,16.683 135.889,17.509 135.317,19.811 L129.705,42.407 L124.159,42.407 L129.889,19.338 C130.27,17.804 130.136,16.683 128.423,16.683 C127.067,16.683 125.799,17.509 125.229,19.811 L119.615,42.407 L114.071,42.407 L121.426,12.789" id="Fill-1" sketch:type="MSShapeGroup"></path>
            <path d="M148.274,12.789 L154.174,12.789 L152.513,34.206 L152.632,34.206 L161.668,12.789 L167.213,12.789 L147.573,53.145 L142.383,53.145 L147.748,41.994 L148.274,12.789" id="Fill-2" sketch:type="MSShapeGroup"></path>
            <path d="M169.438,-0.191 L178.582,-0.191 C187.196,-0.191 188.08,2.11 188.08,11.432 C188.08,17.155 187.313,19.633 182.475,21.107 L182.475,21.226 C186.486,21.639 187.846,23.704 187.846,27.716 L187.846,36.979 C187.846,38.513 187.846,40.637 188.199,42.407 L182.652,42.407 C182.065,41.345 181.946,40.283 181.946,38.572 L181.946,28.955 C181.946,24.943 181.235,23.881 177.342,23.881 L175.336,23.881 L175.336,42.407 L169.438,42.407 L169.438,-0.191 L169.438,-0.191 Z M175.336,18.925 L176.87,18.925 C181.534,18.925 182.18,18.04 182.18,11.668 C182.18,5.356 181.827,4.766 178.168,4.766 L175.336,4.766 L175.336,18.925 L175.336,18.925 Z" id="Fill-3" sketch:type="MSShapeGroup"></path>
            <path d="M199.129,-0.191 L205.971,-0.191 L214.645,42.407 L208.746,42.407 L206.797,31.551 L197.594,31.551 L195.649,42.407 L189.748,42.407 L199.129,-0.191 L199.129,-0.191 Z M198.479,26.595 L205.971,26.595 L202.315,6.064 L202.196,6.064 L198.479,26.595 L198.479,26.595 Z" id="Fill-4" sketch:type="MSShapeGroup"></path>
            <path d="M111.471,56.38 L112.932,63.312 L112.959,63.312 L113,62.916 L113.41,60.61 L114.297,56.38 L115.5,56.38 L116.455,65.987 L115.117,65.987 L114.871,62.407 L114.789,60.624 L114.762,59.362 L114.734,59.362 L114.502,60.738 L113.438,65.987 L112.494,65.987 L111.17,59.362 L111.143,59.362 L110.746,65.987 L109.449,65.987 L110.297,56.38 L111.471,56.38" id="Fill-5" sketch:type="MSShapeGroup"></path>
            <path d="M117.94,56.38 L119.197,60.827 L119.225,60.827 L119.443,59.591 L120.317,56.38 L121.777,56.38 L119.865,61.847 L119.865,65.987 L118.5,65.987 L118.5,61.847 L116.465,56.38 L117.94,56.38" id="Fill-6" sketch:type="MSShapeGroup"></path>
            <path d="M125.078,56.38 L126.717,56.38 C127.715,56.38 129.272,56.432 129.272,58.839 C129.272,59.744 128.984,61.12 127.852,61.312 L129.75,65.987 L128.328,65.987 L126.471,61.286 L126.444,61.286 L126.444,65.987 L125.078,65.987 L125.078,56.38 L125.078,56.38 Z M127.824,59.12 C127.824,58.203 127.701,57.438 126.662,57.463 L126.444,57.463 L126.444,60.636 C127.469,60.7 127.824,60.088 127.824,59.12 L127.824,59.12 Z" id="Fill-7" sketch:type="MSShapeGroup"></path>
            <path d="M134.158,56.38 L134.158,57.489 L131.85,57.489 L131.85,60.509 L133.912,60.509 L133.912,61.617 L131.85,61.617 L131.85,64.879 L134.158,64.879 L134.158,65.987 L130.484,65.987 L130.484,56.38 L134.158,56.38" id="Fill-8" sketch:type="MSShapeGroup"></path>
            <path d="M139.262,56.38 L139.262,57.489 L137.719,57.489 L137.719,65.987 L136.354,65.987 L136.354,57.489 L134.743,57.489 L134.743,56.38 L139.262,56.38" id="Fill-9" sketch:type="MSShapeGroup"></path>
            <path d="M140.039,56.38 L141.404,56.38 L141.404,65.987 L140.039,65.987 L140.039,56.38 Z" id="Fill-10" sketch:type="MSShapeGroup"></path>
            <path d="M142.727,56.38 L144.365,56.38 C145.363,56.38 146.92,56.432 146.92,58.839 C146.92,59.744 146.633,61.12 145.5,61.312 L147.399,65.987 L145.977,65.987 L144.119,61.286 L144.092,61.286 L144.092,65.987 L142.727,65.987 L142.727,56.38 L142.727,56.38 Z M145.473,59.12 C145.473,58.203 145.35,57.438 144.311,57.463 L144.092,57.463 L144.092,60.636 C145.117,60.7 145.473,60.088 145.473,59.12 L145.473,59.12 Z" id="Fill-11" sketch:type="MSShapeGroup"></path>
            <path d="M152.08,56.38 L152.08,57.489 L149.772,57.489 L149.772,60.509 L151.834,60.509 L151.834,61.617 L149.772,61.617 L149.772,64.879 L152.08,64.879 L152.08,65.987 L148.407,65.987 L148.407,56.38 L152.08,56.38" id="Fill-12" sketch:type="MSShapeGroup"></path>
            <path d="M154.793,56.38 L156.256,63.312 L156.283,63.312 L156.324,62.916 L156.733,60.61 L157.621,56.38 L158.823,56.38 L159.779,65.987 L158.44,65.987 L158.194,62.407 L158.113,60.624 L158.086,59.362 L158.059,59.362 L157.827,60.738 L156.76,65.987 L155.818,65.987 L154.494,59.362 L154.467,59.362 L154.07,65.987 L152.773,65.987 L153.62,56.38 L154.793,56.38" id="Fill-13" sketch:type="MSShapeGroup"></path>
            <path d="M164.199,56.38 L164.199,57.489 L161.891,57.489 L161.891,60.509 L163.953,60.509 L163.953,61.617 L161.891,61.617 L161.891,64.879 L164.199,64.879 L164.199,65.987 L160.526,65.987 L160.526,56.38 L164.199,56.38" id="Fill-14" sketch:type="MSShapeGroup"></path>
            <path d="M166.288,59.234 L166.492,62.458 L166.492,65.987 L165.127,65.987 L165.127,56.38 L166.438,56.38 L168.842,63.681 L168.869,63.656 L168.541,59.808 L168.541,56.38 L169.906,56.38 L169.906,65.987 L168.637,65.987 L166.233,58.585 L166.205,58.61 L166.288,59.234" id="Fill-15" sketch:type="MSShapeGroup"></path>
            <path d="M175.201,56.38 L175.201,57.489 L173.659,57.489 L173.659,65.987 L172.293,65.987 L172.293,57.489 L170.682,57.489 L170.682,56.38 L175.201,56.38" id="Fill-16" sketch:type="MSShapeGroup"></path>
            <path d="M180.77,56.38 L182.983,65.987 L181.604,65.987 L181.221,64.114 L179.172,64.114 L178.789,65.987 L177.451,65.987 L179.691,56.38 L180.77,56.38 L180.77,56.38 Z M180.742,61.732 L180.225,58.241 L180.198,58.241 L179.377,63.121 L181.016,63.121 L180.742,61.732 L180.742,61.732 Z" id="Fill-17" sketch:type="MSShapeGroup"></path>
            <path d="M187.527,57.693 C187.254,57.565 186.967,57.451 186.652,57.451 C184.742,57.451 184.729,60.05 184.729,61.248 C184.729,62.521 184.838,64.917 186.707,64.917 C187.008,64.917 187.268,64.854 187.527,64.726 L187.527,65.847 C187.186,66.051 186.83,66.115 186.436,66.115 C183.649,66.115 183.28,63.35 183.28,61.337 C183.28,59.413 183.539,56.253 186.34,56.253 C186.803,56.253 187.131,56.317 187.527,56.533 L187.527,57.693" id="Fill-18" sketch:type="MSShapeGroup"></path>
            <path d="M192.359,57.693 C192.086,57.565 191.799,57.451 191.485,57.451 C189.575,57.451 189.561,60.05 189.561,61.248 C189.561,62.521 189.67,64.917 191.539,64.917 C191.84,64.917 192.1,64.854 192.359,64.726 L192.359,65.847 C192.018,66.051 191.662,66.115 191.268,66.115 C188.48,66.115 188.112,63.35 188.112,61.337 C188.112,59.413 188.371,56.253 191.172,56.253 C191.635,56.253 191.963,56.317 192.359,56.533 L192.359,57.693" id="Fill-19" sketch:type="MSShapeGroup"></path>
            <path d="M198.297,61.184 C198.297,62.916 198.27,66.115 195.621,66.115 C192.971,66.115 192.943,62.916 192.943,61.184 C192.943,59.451 192.971,56.253 195.621,56.253 C198.27,56.253 198.297,59.451 198.297,61.184 L198.297,61.184 Z M194.393,61.184 C194.393,63.223 194.543,64.917 195.621,64.917 C196.7,64.917 196.85,63.223 196.85,61.184 C196.85,59.146 196.7,57.451 195.621,57.451 C194.543,57.451 194.393,59.146 194.393,61.184 L194.393,61.184 Z" id="Fill-20" sketch:type="MSShapeGroup"></path>
            <path d="M200.793,56.38 L200.793,63.426 C200.793,64.662 201.19,64.917 201.748,64.917 C202.692,64.917 202.774,64.356 202.787,63.566 L202.787,56.38 L204.153,56.38 L204.153,63.197 C204.153,64.459 204.166,66.115 201.789,66.115 C199.619,66.115 199.428,64.739 199.428,63.006 L199.428,56.38 L200.793,56.38" id="Fill-21" sketch:type="MSShapeGroup"></path>
            <path d="M206.553,59.234 L206.758,62.458 L206.758,65.987 L205.393,65.987 L205.393,56.38 L206.703,56.38 L209.108,63.681 L209.135,63.656 L208.807,59.808 L208.807,56.38 L210.172,56.38 L210.172,65.987 L208.902,65.987 L206.498,58.585 L206.471,58.61 L206.553,59.234" id="Fill-22" sketch:type="MSShapeGroup"></path>
            <path d="M215.535,56.38 L215.535,57.489 L213.992,57.489 L213.992,65.987 L212.627,65.987 L212.627,57.489 L211.016,57.489 L211.016,56.38 L215.535,56.38" id="Fill-23" sketch:type="MSShapeGroup"></path>
            <path d="M70.645,72.38 L70.645,79.426 C70.645,80.662 71.041,80.917 71.6,80.917 C72.543,80.917 72.625,80.356 72.639,79.566 L72.639,72.38 L74.004,72.38 L74.004,79.197 C74.004,80.458 74.018,82.115 71.641,82.115 C69.471,82.115 69.28,80.739 69.28,79.006 L69.28,72.38 L70.645,72.38" id="Fill-24" sketch:type="MSShapeGroup"></path>
            <path d="M75.245,81.312 C75.245,80.904 75.613,80.561 76.062,80.561 C76.514,80.561 76.883,80.904 76.883,81.312 C76.883,81.745 76.514,82.089 76.062,82.089 C75.613,82.089 75.245,81.745 75.245,81.312" id="Fill-25" sketch:type="MSShapeGroup"></path>
            <path d="M81.291,73.858 C80.937,73.616 80.596,73.451 80.131,73.451 C79.381,73.451 78.916,74.024 78.916,74.686 C78.916,75.107 79.025,75.4 79.299,75.732 L80.336,76.789 C81.264,77.668 81.797,78.305 81.797,79.605 C81.797,80.955 80.897,82.115 79.381,82.115 C78.848,82.115 78.301,81.975 77.877,81.656 L77.877,80.369 C78.287,80.649 78.697,80.866 79.231,80.866 C80.076,80.866 80.432,80.242 80.432,79.528 C80.432,77.617 77.551,77.235 77.551,74.712 C77.551,73.362 78.315,72.253 79.857,72.253 C80.377,72.253 80.87,72.33 81.305,72.572 L81.291,73.858" id="Fill-26" sketch:type="MSShapeGroup"></path>
            <path d="M82.545,81.312 C82.545,80.904 82.914,80.561 83.366,80.561 C83.817,80.561 84.184,80.904 84.184,81.312 C84.184,81.745 83.817,82.089 83.366,82.089 C82.914,82.089 82.545,81.745 82.545,81.312" id="Fill-27" sketch:type="MSShapeGroup"></path>
            <path d="M89.59,72.38 C91.201,72.38 93.031,72.482 93.031,77.35 C93.031,81.783 91.447,81.987 89.002,81.987 L88.061,81.987 L88.061,72.38 L89.59,72.38 L89.59,72.38 Z M89.426,73.463 L89.426,80.904 C91.68,80.968 91.584,78.98 91.584,77.35 C91.584,75.871 91.735,73.336 89.426,73.463 L89.426,73.463 Z" id="Fill-28" sketch:type="MSShapeGroup"></path>
            <path d="M97.932,72.38 L97.932,73.489 L95.623,73.489 L95.623,76.509 L97.686,76.509 L97.686,77.617 L95.623,77.617 L95.623,80.879 L97.932,80.879 L97.932,81.987 L94.258,81.987 L94.258,72.38 L97.932,72.38" id="Fill-29" sketch:type="MSShapeGroup"></path>
            <path d="M98.83,81.987 L98.83,72.38 L100.469,72.38 C101.643,72.38 103.145,72.482 103.145,74.954 C103.145,76.904 102.327,77.808 100.196,77.732 L100.196,81.987 L98.83,81.987 L98.83,81.987 Z M100.196,73.463 L100.196,76.649 C101.369,76.725 101.698,76.126 101.698,75.056 C101.698,74.19 101.424,73.463 100.387,73.463 L100.196,73.463 L100.196,73.463 Z" id="Fill-30" sketch:type="MSShapeGroup"></path>
            <path d="M106.092,72.38 L108.305,81.987 L106.926,81.987 L106.543,80.114 L104.495,80.114 L104.112,81.987 L102.774,81.987 L105.014,72.38 L106.092,72.38 L106.092,72.38 Z M106.065,77.732 L105.547,74.241 L105.52,74.241 L104.699,79.121 L106.338,79.121 L106.065,77.732 L106.065,77.732 Z" id="Fill-31" sketch:type="MSShapeGroup"></path>
            <path d="M109.039,72.38 L110.678,72.38 C111.676,72.38 113.233,72.432 113.233,74.839 C113.233,75.744 112.946,77.12 111.813,77.311 L113.711,81.987 L112.289,81.987 L110.432,77.286 L110.405,77.286 L110.405,81.987 L109.039,81.987 L109.039,72.38 L109.039,72.38 Z M111.785,75.12 C111.785,74.203 111.662,73.438 110.623,73.463 L110.405,73.463 L110.405,76.636 C111.43,76.7 111.785,76.088 111.785,75.12 L111.785,75.12 Z" id="Fill-32" sketch:type="MSShapeGroup"></path>
            <path d="M117.942,72.38 L117.942,73.489 L116.398,73.489 L116.398,81.987 L115.032,81.987 L115.032,73.489 L113.42,73.489 L113.42,72.38 L117.942,72.38" id="Fill-33" sketch:type="MSShapeGroup"></path>
            <path d="M120.069,72.38 L121.531,79.312 L121.559,79.312 L121.6,78.916 L122.008,76.61 L122.897,72.38 L124.098,72.38 L125.055,81.987 L123.715,81.987 L123.469,78.407 L123.389,76.624 L123.362,75.362 L123.334,75.362 L123.102,76.738 L122.035,81.987 L121.094,81.987 L119.77,75.362 L119.743,75.362 L119.346,81.987 L118.049,81.987 L118.895,72.38 L120.069,72.38" id="Fill-34" sketch:type="MSShapeGroup"></path>
            <path d="M129.721,72.38 L129.721,73.489 L127.412,73.489 L127.412,76.509 L129.475,76.509 L129.475,77.617 L127.412,77.617 L127.412,80.879 L129.721,80.879 L129.721,81.987 L126.047,81.987 L126.047,72.38 L129.721,72.38" id="Fill-35" sketch:type="MSShapeGroup"></path>
            <path d="M131.781,75.234 L131.984,78.458 L131.984,81.987 L130.619,81.987 L130.619,72.38 L131.932,72.38 L134.334,79.681 L134.361,79.656 L134.033,75.808 L134.033,72.38 L135.401,72.38 L135.401,81.987 L134.129,81.987 L131.727,74.585 L131.699,74.61 L131.781,75.234" id="Fill-36" sketch:type="MSShapeGroup"></path>
            <path d="M140.532,72.38 L140.532,73.489 L138.988,73.489 L138.988,81.987 L137.623,81.987 L137.623,73.489 L136.012,73.489 L136.012,72.38 L140.532,72.38" id="Fill-37" sketch:type="MSShapeGroup"></path>
            <path d="M148.871,77.184 C148.871,78.916 148.844,82.115 146.195,82.115 C143.545,82.115 143.518,78.916 143.518,77.184 C143.518,75.451 143.545,72.253 146.195,72.253 C148.844,72.253 148.871,75.451 148.871,77.184 L148.871,77.184 Z M144.967,77.184 C144.967,79.223 145.117,80.917 146.195,80.917 C147.274,80.917 147.424,79.223 147.424,77.184 C147.424,75.146 147.274,73.451 146.195,73.451 C145.117,73.451 144.967,75.146 144.967,77.184 L144.967,77.184 Z" id="Fill-38" sketch:type="MSShapeGroup"></path>
            <path d="M153.813,72.38 L153.813,73.489 L151.477,73.489 L151.477,76.509 L153.58,76.509 L153.58,77.617 L151.477,77.617 L151.477,81.987 L150.111,81.987 L150.111,72.38 L153.813,72.38" id="Fill-39" sketch:type="MSShapeGroup"></path>
            <path d="M160.883,72.38 L160.883,73.489 L159.34,73.489 L159.34,81.987 L157.975,81.987 L157.975,73.489 L156.364,73.489 L156.364,72.38 L160.883,72.38" id="Fill-40" sketch:type="MSShapeGroup"></path>
            <path d="M162.861,72.38 L162.861,76.126 L164.924,76.126 L164.924,72.38 L166.289,72.38 L166.289,81.987 L164.924,81.987 L164.924,77.235 L162.861,77.235 L162.861,81.987 L161.496,81.987 L161.496,72.38 L162.861,72.38" id="Fill-41" sketch:type="MSShapeGroup"></path>
            <path d="M171.461,72.38 L171.461,73.489 L169.152,73.489 L169.152,76.509 L171.215,76.509 L171.215,77.617 L169.152,77.617 L169.152,80.879 L171.461,80.879 L171.461,81.987 L167.788,81.987 L167.788,72.38 L171.461,72.38" id="Fill-42" sketch:type="MSShapeGroup"></path>
            <path d="M178.627,72.38 L178.627,73.489 L177.084,73.489 L177.084,81.987 L175.719,81.987 L175.719,73.489 L174.108,73.489 L174.108,72.38 L178.627,72.38" id="Fill-43" sketch:type="MSShapeGroup"></path>
            <path d="M179.24,72.38 L180.879,72.38 C181.875,72.38 183.432,72.432 183.432,74.839 C183.432,75.744 183.147,77.12 182.012,77.311 L183.91,81.987 L182.49,81.987 L180.633,77.286 L180.605,77.286 L180.605,81.987 L179.24,81.987 L179.24,72.38 L179.24,72.38 Z M181.985,75.12 C181.985,74.203 181.862,73.438 180.824,73.463 L180.605,73.463 L180.605,76.636 C181.629,76.7 181.985,76.088 181.985,75.12 L181.985,75.12 Z" id="Fill-44" sketch:type="MSShapeGroup"></path>
            <path d="M188.428,72.38 L188.428,73.489 L186.119,73.489 L186.119,76.509 L188.182,76.509 L188.182,77.617 L186.119,77.617 L186.119,80.879 L188.428,80.879 L188.428,81.987 L184.754,81.987 L184.754,72.38 L188.428,72.38" id="Fill-45" sketch:type="MSShapeGroup"></path>
            <path d="M191.867,72.38 L194.08,81.987 L192.699,81.987 L192.319,80.114 L190.27,80.114 L189.887,81.987 L188.549,81.987 L190.787,72.38 L191.867,72.38 L191.867,72.38 Z M191.84,77.732 L191.321,74.241 L191.293,74.241 L190.475,79.121 L192.113,79.121 L191.84,77.732 L191.84,77.732 Z" id="Fill-46" sketch:type="MSShapeGroup"></path>
            <path d="M197.983,73.858 C197.627,73.616 197.285,73.451 196.822,73.451 C196.07,73.451 195.605,74.024 195.605,74.686 C195.605,75.107 195.715,75.4 195.988,75.732 L197.028,76.789 C197.955,77.668 198.488,78.305 198.488,79.605 C198.488,80.955 197.586,82.115 196.07,82.115 C195.538,82.115 194.992,81.975 194.569,81.656 L194.569,80.369 C194.979,80.649 195.387,80.866 195.92,80.866 C196.768,80.866 197.121,80.242 197.121,79.528 C197.121,77.617 194.24,77.235 194.24,74.712 C194.24,73.362 195.006,72.253 196.549,72.253 C197.067,72.253 197.559,72.33 197.996,72.572 L197.983,73.858" id="Fill-47" sketch:type="MSShapeGroup"></path>
            <path d="M200.848,72.38 L200.848,79.426 C200.848,80.662 201.245,80.917 201.803,80.917 C202.746,80.917 202.828,80.356 202.842,79.566 L202.842,72.38 L204.207,72.38 L204.207,79.197 C204.207,80.458 204.221,82.115 201.844,82.115 C199.674,82.115 199.483,80.739 199.483,79.006 L199.483,72.38 L200.848,72.38" id="Fill-48" sketch:type="MSShapeGroup"></path>
            <path d="M205.693,72.38 L207.332,72.38 C208.328,72.38 209.885,72.432 209.885,74.839 C209.885,75.744 209.6,77.12 208.465,77.311 L210.364,81.987 L208.944,81.987 L207.086,77.286 L207.059,77.286 L207.059,81.987 L205.693,81.987 L205.693,72.38 L205.693,72.38 Z M208.437,75.12 C208.437,74.203 208.315,73.438 207.277,73.463 L207.059,73.463 L207.059,76.636 C208.082,76.7 208.437,76.088 208.437,75.12 L208.437,75.12 Z" id="Fill-49" sketch:type="MSShapeGroup"></path>
            <path d="M211.631,72.38 L212.887,76.827 L212.914,76.827 L213.133,75.591 L214.008,72.38 L215.469,72.38 L213.557,77.847 L213.557,81.987 L212.192,81.987 L212.192,77.847 L210.156,72.38 L211.631,72.38" id="Fill-50" sketch:type="MSShapeGroup"></path>
            <path d="M14.195,20.547 L12.453,25.874 L16.986,22.578 L21.504,25.85 L19.78,20.547 L24.289,17.253 L18.712,17.259 L16.986,11.889 L15.257,17.259 L9.649,17.253 L14.195,20.547" id="Fill-51" sketch:type="MSShapeGroup"></path>
            <path d="M57.429,2.642 L57.422,2.642 L28.828,9.744 L86.02,9.744 L57.429,2.642" id="Fill-52" sketch:type="MSShapeGroup"></path>
            <path d="M26.922,9.349 C27,9.349 27.09,9.344 27.166,9.319 L57.422,1.804 L87.684,9.319 C87.758,9.344 87.845,9.349 87.918,9.349 C88.373,9.349 88.783,9.043 88.899,8.588 C89.031,8.049 88.703,7.499 88.166,7.367 L57.422,-0.266 L26.684,7.367 C26.143,7.499 25.815,8.049 25.951,8.588 C26.063,9.043 26.475,9.349 26.922,9.349" id="Fill-53" sketch:type="MSShapeGroup"></path>
            <path d="M39.719,13.107 L86.013,13.107 L86.013,10.619 L28.841,10.619 L28.841,13.107 L39.719,13.107" id="Fill-54" sketch:type="MSShapeGroup"></path>
            <path d="M58.983,15.17 L59.248,15.17 C59.248,15.677 59.629,16.082 60.233,16.082 L60.233,16.303 C60.233,16.451 60.367,16.577 60.544,16.577 L60.604,16.577 L60.604,42.905 C63.495,43.35 66.315,43.73 69.024,44.044 L69.024,16.577 L69.104,16.577 C69.275,16.577 69.411,16.451 69.411,16.303 L69.411,16.082 C70.013,16.082 70.387,15.721 70.387,15.17 L70.643,15.17 C70.727,15.17 70.793,15.107 70.793,15.033 L70.793,14.107 C70.793,14.039 70.727,13.969 70.643,13.969 L58.983,13.969 C58.894,13.969 58.824,14.039 58.824,14.107 L58.824,15.033 C58.824,15.107 58.894,15.17 58.983,15.17" id="Fill-55" sketch:type="MSShapeGroup"></path>
            <path d="M73.747,15.17 L74.018,15.17 C74.018,15.677 74.403,16.082 75.004,16.082 L75.004,16.303 C75.004,16.451 75.143,16.577 75.311,16.577 L75.377,16.577 L75.377,44.719 C78.46,44.999 81.297,45.213 83.796,45.363 L83.796,16.577 L83.871,16.577 C84.045,16.577 84.185,16.451 84.185,16.303 L84.185,16.082 C84.785,16.082 85.164,15.721 85.164,15.17 L85.411,15.17 C85.492,15.17 85.569,15.107 85.569,15.033 L85.569,14.107 C85.569,14.039 85.492,13.969 85.411,13.969 L73.747,13.969 C73.668,13.969 73.602,14.039 73.602,14.107 L73.602,15.033 C73.602,15.107 73.668,15.17 73.747,15.17" id="Fill-56" sketch:type="MSShapeGroup"></path>
            <path d="M29.44,15.17 L29.701,15.17 C29.701,15.677 30.084,16.082 30.685,16.082 L30.685,16.303 C30.685,16.451 30.823,16.577 30.995,16.577 L31.061,16.577 L31.061,35.723 C33.719,36.641 36.53,37.527 39.479,38.373 L39.479,16.577 L39.561,16.577 C39.727,16.577 39.866,16.451 39.866,16.303 L39.866,16.082 C40.469,16.082 40.852,15.721 40.852,15.17 L41.093,15.17 C41.181,15.17 41.254,15.107 41.254,15.033 L41.254,14.107 C41.254,14.039 41.181,13.969 41.093,13.969 L29.44,13.969 C29.356,13.969 29.284,14.039 29.284,14.107 L29.284,15.033 C29.284,15.107 29.356,15.17 29.44,15.17" id="Fill-57" sketch:type="MSShapeGroup"></path>
            <path d="M44.209,15.17 L44.479,15.17 C44.479,15.677 44.855,16.082 45.457,16.082 L45.457,16.303 C45.457,16.451 45.602,16.577 45.768,16.577 L45.832,16.577 L45.832,40.029 C48.635,40.705 51.457,41.299 54.252,41.817 L54.252,16.577 L54.328,16.577 C54.495,16.577 54.637,16.451 54.637,16.303 L54.637,16.082 C55.24,16.082 55.619,15.721 55.619,15.17 L55.869,15.17 C55.951,15.17 56.018,15.107 56.018,15.033 L56.018,14.107 C56.018,14.039 55.951,13.969 55.869,13.969 L44.209,13.969 C44.121,13.969 44.051,14.039 44.051,14.107 L44.051,15.033 C44.051,15.107 44.121,15.17 44.209,15.17" id="Fill-58" sketch:type="MSShapeGroup"></path>
            <path d="M18.485,45.6 C11.883,41.042 6.866,35.621 3.194,31.482 C6.237,38.123 20.559,65.019 60.201,82.602 L66.199,69.533 C43.143,62.475 28.684,52.634 18.485,45.6" id="Fill-59" sketch:type="MSShapeGroup"></path>
            <path d="M86.434,69.282 L94.584,49.913 C94.584,49.913 66.877,49.913 41.346,43.174 C15.811,36.434 -0.48,25.487 -0.48,25.487 C-0.48,25.487 21.252,56.654 86.434,69.282" id="Fill-60" sketch:type="MSShapeGroup"></path>
        </g>
    </g>
</svg>